<?xml version="1.0" encoding="iso-8859-1"?>
<!-- Generator: Adobe Illustrator 18.1.1, SVG Export Plug-In . SVG Version: 6.00 Build 0)  -->
<svg version="1.1" id="Capa_1" xmlns="http://www.w3.org/2000/svg" xmlns:xlink="http://www.w3.org/1999/xlink" x="0px" y="0px"
	 viewBox="0 0 52.98 52.98" style="enable-background:new 0 0 52.98 52.98;" xml:space="preserve">
<g>
	<g>
		<rect x="6.791" y="19.07" style="fill:#010002;" width="2.893" height="14.029"/>
		<path style="fill:#010002;" d="M31.376,38.23h1.157v-2.84H6.791v2.84h2.893v14.75h9.978c0-5.206,3.865-4.916,3.865-4.916
			C33.319,46.329,31.376,38.23,31.376,38.23z"/>
		<path style="fill:#010002;" d="M44.415,9.72c0.695-1.002,1.105-2.216,1.105-3.528C45.52,2.773,42.749,0,39.328,0
			c-3.42,0-6.192,2.772-6.192,6.192s2.772,6.193,6.192,6.193c0.597,0,1.17-0.089,1.716-0.246c-0.632,2.67-1.633,5.208-2.716,7.718
			c-0.584-0.896-1.188-1.78-1.778-2.672c0.814-3.932-3.414-8.616-7.986-6.006c-5.128,2.926-9.17,7.659-11.509,13.055
			c-1.169,2.697-0.789,5.775,1.975,7.371c0.083,0.049,0.172,0.088,0.259,0.131c0.486,0.348,1.083,0.585,1.795,0.652
			c5.313,0.504,10.678,0.604,16.025,0.643c-1.633,4.936-3.537,9.792-5.469,14.605c-1.68,4.182,5.076,5.979,6.732,1.854
			c2.512-6.253,4.979-12.58,6.857-19.058c0.797-2.75-1.622-4.491-3.817-4.297c-0.097-0.019-0.192-0.036-0.295-0.046
			c1.819-4.417,4.044-8.668,5.011-13.383C46.434,11.217,45.53,10.134,44.415,9.72z M28.423,25.876
			c1.254-1.889,2.783-3.52,4.646-4.778c1.069,1.595,2.112,3.206,2.95,4.94C33.487,26.016,30.953,25.974,28.423,25.876z"/>
	</g>
</g>
<g>
</g>
<g>
</g>
<g>
</g>
<g>
</g>
<g>
</g>
<g>
</g>
<g>
</g>
<g>
</g>
<g>
</g>
<g>
</g>
<g>
</g>
<g>
</g>
<g>
</g>
<g>
</g>
<g>
</g>
</svg>
