<?xml version="1.0" encoding="iso-8859-1"?>
<!-- Generator: Adobe Illustrator 19.0.0, SVG Export Plug-In . SVG Version: 6.00 Build 0)  -->
<svg version="1.1" id="Capa_1" xmlns="http://www.w3.org/2000/svg" xmlns:xlink="http://www.w3.org/1999/xlink" x="0px" y="0px"
	 viewBox="0 0 512 512" style="enable-background:new 0 0 512 512;" xml:space="preserve">
<g>
	<g>
		<g>
			<path d="M248.935,375.256c-3.946,3.938-17.354,17.752-27.414,33.15h24.783c3.154-4.009,6.475-7.938,9.699-11.524
				c3.226,3.586,6.549,7.514,9.704,11.524h24.771c-10.06-15.398-23.468-29.212-27.414-33.15
				C259.161,371.36,252.838,371.36,248.935,375.256z"/>
			<path d="M502,174.714c5.523,0,10-4.478,10-10V92.12c0-5.522-4.477-10-10-10h-91.889l-21.497-49.129
				c-1.592-3.64-5.189-5.991-9.161-5.991H132.547c-3.973,0-7.569,2.352-9.161,5.991L101.889,82.12H10c-5.523,0-10,4.478-10,10
				v72.594c0,5.522,4.477,10,10,10h16.997v233.692H10c-5.523,0-10,4.477-10,10V475c0,5.522,4.477,10,10,10h492
				c5.523,0,10-4.478,10-10v-56.594c0-5.523-4.477-10-10-10h-16.997V174.714H502z M139.087,47h233.825l15.367,35.12H123.72
				L139.087,47z M141.228,465H20v-36.594h121.228V465z M421.609,328.406v-60h43.393v60H421.609z M465.002,348.406v60h-43.393v-60
				H465.002z M421.61,248.406v-33.963c0-5.523-4.477-10-10-10H100.391c-5.523,0-10,4.477-10,10v33.963H46.997v-73.691h418.006
				v73.691H421.61z M90.391,268.406v60H46.997v-60H90.391z M90.391,348.406v60H46.997v-60H90.391z M350.772,418.406V465h-38.173
				c14.745-11.998,25.643-28.718,30.32-48.337c0.707-2.965,1.308-5.708,1.812-8.257h-20.436c-0.252,1.138-0.526,2.337-0.832,3.618
				c-3.481,14.605-11.408,27.146-22.163,36.355c0.671-3.134,1.032-6.381,1.032-9.712c0-9.18-5.195-20.067-11.855-30.261h-24.771
				c9.002,11.44,16.626,23.545,16.626,30.261c0,14.509-11.794,26.313-26.298,26.332c-0.142,0-0.282-0.008-0.423-0.009
				c-14.342-0.209-25.946-11.933-25.946-26.323c0-6.701,7.631-18.811,16.638-30.261h-24.783
				c-6.66,10.194-11.855,21.081-11.855,30.261c0,3.256,0.341,6.432,0.983,9.5c-10.671-9.225-18.538-21.747-22.004-36.318
				c-0.289-1.215-0.549-2.353-0.791-3.443H167.41c0.501,2.5,1.091,5.183,1.778,8.07c4.686,19.703,15.615,36.49,30.401,48.524
				h-38.362v-46.594c0-5.523-4.477-9.999-9.999-10h-40.837v0h40.836c0,0,0,0,0,0h-40.836V224.443H401.61v183.963h-0.001h-56.878l0,0
				h16.041C355.249,408.406,350.772,412.883,350.772,418.406z M492,428.406V465H370.772v-36.594H492z M20,154.714v-16.297
				l389.241,0.001c5.523,0,10-4.478,10-10c0-5.522-4.477-10-10-10L20,118.417V102.12h472v52.594H20z"/>
			<path d="M346.66,390.998c0-27.142-12.278-57.938-23.768-77.707l-10.59-18.22c-1.759-3.027-4.974-4.913-8.475-4.974
				c-3.473-0.055-6.777,1.717-8.64,4.682l-12.055,19.197l-25.425-53.814c-1.652-3.498-5.173-5.729-9.042-5.729h-0.175
				c-3.042,0-5.918,1.385-7.816,3.762l-49.972,62.612c-16.357,19.966-25.364,45.171-25.364,70.981c0,4.204,0.683,9.686,2.072,16.618
				h20.444c-2.052-9.222-2.516-14.107-2.516-16.618c0-21.221,7.413-41.944,20.872-58.353c0.028-0.034,0.057-0.069,0.085-0.103
				l40.115-50.263l26.439,55.96c1.561,3.304,4.798,5.493,8.445,5.711c3.646,0.22,7.122-1.57,9.065-4.665l12.966-20.648l2.275,3.914
				c10.181,17.517,21.06,44.488,21.06,67.656v1.643c0,2.412-0.437,7.06-2.364,15.766h20.436c1.292-6.53,1.929-11.735,1.929-15.765
				V390.998z"/>
			<rect x="159.318" y="400.315" width="0.001" height="16.182"/>
			<rect x="307.387" y="391.497" width="0" height="33.818"/>
			<rect x="256.006" y="398.704" width="0" height="19.403"/>
			<rect x="204.687" y="391.572" width="0" height="33.667"/>
		</g>
	</g>
</g>
<g>
	<g>
		<path d="M458.02,126.458c-0.13-0.639-0.32-1.269-0.57-1.868c-0.25-0.6-0.56-1.18-0.92-1.72c-0.36-0.551-0.78-1.061-1.24-1.521
			c-0.46-0.46-0.98-0.88-1.52-1.25c-0.55-0.359-1.13-0.67-1.73-0.92c-0.6-0.25-1.23-0.44-1.87-0.57c-1.29-0.26-2.62-0.26-3.91,0
			c-0.64,0.131-1.27,0.32-1.87,0.57c-0.6,0.25-1.19,0.56-1.73,0.92c-0.55,0.37-1.06,0.79-1.52,1.25c-1.86,1.86-2.92,4.43-2.92,7.07
			c0,0.649,0.06,1.31,0.19,1.95c0.13,0.64,0.32,1.27,0.57,1.87c0.25,0.609,0.56,1.189,0.92,1.729c0.36,0.55,0.78,1.06,1.24,1.521
			c0.46,0.46,0.97,0.88,1.52,1.239c0.55,0.36,1.13,0.67,1.73,0.92c0.6,0.25,1.23,0.44,1.87,0.57c0.65,0.13,1.3,0.2,1.95,0.2
			c2.64,0,5.22-1.07,7.07-2.93c0.47-0.461,0.88-0.971,1.25-1.521c0.36-0.54,0.67-1.12,0.92-1.729c0.25-0.601,0.44-1.23,0.57-1.87
			c0.13-0.641,0.2-1.301,0.2-1.95C458.22,127.768,458.15,127.107,458.02,126.458z"/>
	</g>
</g>
<g>
</g>
<g>
</g>
<g>
</g>
<g>
</g>
<g>
</g>
<g>
</g>
<g>
</g>
<g>
</g>
<g>
</g>
<g>
</g>
<g>
</g>
<g>
</g>
<g>
</g>
<g>
</g>
<g>
</g>
</svg>
