<?xml version="1.0" encoding="iso-8859-1"?>
<!-- Generator: Adobe Illustrator 19.0.0, SVG Export Plug-In . SVG Version: 6.00 Build 0)  -->
<svg version="1.1" id="Capa_1" xmlns="http://www.w3.org/2000/svg" xmlns:xlink="http://www.w3.org/1999/xlink" x="0px" y="0px"
	 viewBox="0 0 512 512" style="enable-background:new 0 0 512 512;" xml:space="preserve">
<g>
	<g>
		<path d="M390.337,177.619c-1.83,0-3.668,0.042-5.508,0.126c-26.655-53.014-80.76-86.691-140.763-86.691
			c-71.771,0-134.063,48.508-152.252,116.877c-23.384,3.322-44.934,14.252-61.612,31.446C10.726,259.455,0,285.921,0,313.898
			c0,59.026,48.021,107.048,107.048,107.048h283.289c67.085,0,121.663-54.578,121.663-121.663
			C512,232.197,457.422,177.619,390.337,177.619z M390.337,390.946H107.048C64.563,390.946,30,356.383,30,313.898
			c0-20.137,7.719-39.184,21.735-53.633c13.986-14.419,32.724-22.718,52.76-23.368l12.012-0.39l2.239-11.809
			c11.388-60.056,64.092-103.646,125.32-103.646c51.6,0,97.812,30.762,117.731,78.369l4.455,10.646l11.433-1.577
			c4.199-0.579,8.455-0.873,12.651-0.873c50.543,0,91.663,41.12,91.663,91.664C482,349.826,440.88,390.946,390.337,390.946z"/>
	</g>
</g>
<g>
	<g>
		<path d="M212.387,309.41c-3.314,9.046-11.594,12.486-18.474,12.486c-13.376,0-22.039-12.995-22.039-27.391
			c0-13.122,7.007-27.135,21.784-27.135c6.625,0,15.033,2.803,18.728,12.357l16.052-11.211
			c-5.732-11.721-18.218-19.747-34.27-19.747c-27.518,0-43.569,23.059-43.569,44.971c0,23.187,17.708,46.755,42.805,46.755
			c14.269,0,30.83-7.644,36.181-21.021L212.387,309.41z"/>
	</g>
</g>
<g>
	<g>
		<path d="M277.611,248.771c-25.097,0-43.441,21.658-43.441,45.608c0,23.313,17.325,46.117,43.06,46.117
			c25.097,0,43.314-21.912,43.314-45.735C320.544,271.829,303.473,248.771,277.611,248.771z M277.484,321.896
			c-14.269,0-22.04-13.377-22.04-27.263c0-13.632,7.39-27.263,21.912-27.263c14.014,0,21.912,12.994,21.912,27.008
			C299.269,307.883,292.007,321.896,277.484,321.896z"/>
	</g>
</g>
<g>
	<g>
		<path d="M344.047,345.451c0-2.865,4.331-4.997,8.13-7.196c5.931-3.465,9.396-6.797,9.396-14.127
			c0-9.729-6.197-15.192-16.992-15.192c-8.662,0-15.859,3.531-19.391,7.529l7.796,8.463c2.532-2.466,6.331-4.798,9.796-4.798
			c2.266,0,4.331,1,4.331,4.198c0,4.864-4.798,7.196-10.328,9.795c-10.129,4.798-11.595,10.396-11.595,22.656h36.449v-11.328
			H344.047z"/>
	</g>
</g>
<g>
</g>
<g>
</g>
<g>
</g>
<g>
</g>
<g>
</g>
<g>
</g>
<g>
</g>
<g>
</g>
<g>
</g>
<g>
</g>
<g>
</g>
<g>
</g>
<g>
</g>
<g>
</g>
<g>
</g>
</svg>
