<?xml version="1.0" encoding="iso-8859-1"?>
<!-- Generator: Adobe Illustrator 19.0.0, SVG Export Plug-In . SVG Version: 6.00 Build 0)  -->
<svg version="1.1" id="Layer_1" xmlns="http://www.w3.org/2000/svg" xmlns:xlink="http://www.w3.org/1999/xlink" x="0px" y="0px"
	 viewBox="0 0 511.994 511.994" style="enable-background:new 0 0 511.994 511.994;" xml:space="preserve">
<g>
	<g>
		<path d="M420.764,148.132l-68.267-93.585c-2.731-3.755-7.996-4.625-11.793-1.963l-8.525,5.948L292.799,3.569
			c-2.671-3.738-7.842-4.693-11.674-2.133l-51.2,34.031c-1.929,1.28-3.243,3.277-3.661,5.547c-0.418,2.261,0.111,4.599,1.451,6.477
			l16.512,23.049c-71.108,29.474-86.366,84.062-86.366,125.141v215.33c-34.321,1.468-68.267,11.793-68.267,32.614
			c0,0.674,0,37.069,0,37.069h0.06c1.749,21.495,40.593,31.3,76.74,31.3c36.992,0,76.8-10.266,76.8-32.819c0,0,0-19.746,0-36.762
			c-2.85-18.987-35.49-30.003-68.267-31.394V195.68c0-53.129,26.735-90.462,79.445-110.993l13.449,18.765l-12.45,8.687
			c-1.877,1.306-3.149,3.311-3.524,5.564c-0.375,2.253,0.171,4.565,1.519,6.409l68.267,93.585c1.664,2.287,4.267,3.499,6.912,3.499
			c1.69,0,3.396-0.495,4.881-1.536l85.333-59.554c1.877-1.306,3.149-3.311,3.524-5.564
			C422.659,152.288,422.113,149.984,420.764,148.132z M226.128,480.693c0,4.062-20.54,15.804-59.733,15.804
			s-59.733-11.742-59.733-15.804v-13.969c15.027,7.612,37.845,11.238,59.733,11.238c21.888,0,44.706-3.627,59.733-11.238V480.693z
			 M226.128,445.143c0,4.062-20.54,15.795-59.733,15.795c-39.194,0-59.733-11.742-59.733-15.795c0-3.746,17.698-13.918,51.2-15.488
			v5.76c0,4.702,3.814,8.508,8.533,8.508c4.719,0,8.533-3.806,8.533-8.508v-5.76C208.43,431.226,226.128,441.397,226.128,445.143z
			 M246.727,46.261l36.992-24.593l34.483,48.128l-36.412,25.412L246.727,46.261z M330.499,202.455l-58.231-79.821l71.347-49.801
			l58.231,79.821L330.499,202.455z"/>
	</g>
</g>
<g>
</g>
<g>
</g>
<g>
</g>
<g>
</g>
<g>
</g>
<g>
</g>
<g>
</g>
<g>
</g>
<g>
</g>
<g>
</g>
<g>
</g>
<g>
</g>
<g>
</g>
<g>
</g>
<g>
</g>
</svg>
