<svg height="512pt" viewBox="-4 0 512 512.00003" width="512pt" xmlns="http://www.w3.org/2000/svg"><path d="m159.339844 269.363281c6.925781 48.824219 50.449218 83.964844 99.636718 80.445313 49.1875-3.515625 87.265626-44.496094 87.167969-93.808594.054688-35.273438-19.742187-67.574219-51.199219-83.53125v-53.003906c0-14.136719-11.460937-25.597656-25.601562-25.597656h-34.132812c-14.136719 0-25.597657 11.460937-25.597657 25.597656l-.207031 53.078125c-35.550781 18.371093-55.625 57.191406-50.066406 96.820312zm57.875-81.628906c5.769531-2.902344 9.425781-8.796875 9.464844-15.257813v-53.011718c0-4.710938 3.820312-8.53125 8.53125-8.53125h34.132812c4.714844 0 8.535156 3.820312 8.535156 8.53125v53.003906c.039063 6.464844 3.699219 12.363281 9.480469 15.265625 32.976563 16.984375 49.097656 55.113281 38.3125 90.605469-10.789063 35.492187-45.398437 58.199218-82.25 53.964844-33.5625-3.929688-60.613281-29.332032-66.640625-62.582032s10.386719-66.53125 40.433594-81.988281zm0 0"/><path d="m252.277344 375.464844c-4.710938 0-8.53125 3.824218-8.53125 8.535156v42.667969c0 4.710937 3.820312 8.53125 8.53125 8.53125 4.714844 0 8.535156-3.820313 8.535156-8.53125v-42.667969c0-4.710938-3.820312-8.535156-8.535156-8.535156zm0 0"/><path d="m304.117188 373.359375c-1.042969-2.867187-3.535157-4.957031-6.539063-5.488281-3-.53125-6.058594.582031-8.019531 2.917968-1.960938 2.335938-2.527344 5.539063-1.484375 8.40625l14.59375 40.105469c1.042969 2.867188 3.535156 4.960938 6.539062 5.488281 3 .53125 6.058594-.582031 8.019531-2.917968 1.960938-2.335938 2.527344-5.539063 1.484376-8.40625zm0 0"/><path d="m341.160156 348.542969c-3.058594-3.492188-8.347656-3.902344-11.90625-.917969-3.554687 2.984375-4.074218 8.265625-1.164062 11.882812l27.441406 32.683594c1.9375 2.410156 5.023438 3.582032 8.074219 3.070313 3.046875-.515625 5.578125-2.640625 6.617187-5.550781 1.035156-2.914063.417969-6.15625-1.617187-8.484376zm0 0"/><path d="m404.445312 333.882812-36.957031-21.332031c-4.085937-2.355469-9.304687-.957031-11.664062 3.128907-2.355469 4.082031-.953125 9.300781 3.128906 11.660156l36.957031 21.332031c1.296875.753906 2.769532 1.148437 4.269532 1.144531 3.867187.003906 7.253906-2.589844 8.253906-6.328125 1.003906-3.734375-.636719-7.675781-3.988282-9.605469zm0 0"/><path d="m421.9375 277.144531-42.019531-7.414062c-4.640625-.816407-9.066407 2.28125-9.882813 6.925781-.820312 4.640625 2.28125 9.066406 6.921875 9.882812l42.019531 7.410157c.488282.085937.988282.128906 1.484376.125 4.410156-.019531 8.074218-3.398438 8.457031-7.789063.382812-4.394531-2.640625-8.355468-6.980469-9.140625zm0 0"/><path d="m370.039062 235.128906c.71875 4.074219 4.257813 7.042969 8.394532 7.046875.5 0 .996094-.042969 1.484375-.128906l42.019531-7.40625c4.640625-.816406 7.742188-5.242187 6.925781-9.886719-.820312-4.640625-5.246093-7.742187-9.886719-6.921875l-42.019531 7.414063c-4.636719.820312-7.734375 5.242187-6.917969 9.882812zm0 0"/><path d="m355.828125 196.105469c1.132813 1.960937 2.996094 3.390625 5.179687 3.980469 2.1875.585937 4.519532.28125 6.480469-.851563l36.957031-21.332031c4.082032-2.355469 5.484376-7.578125 3.125-11.660156-2.355468-4.082032-7.574218-5.484376-11.660156-3.128907l-36.957031 21.335938c-4.082031 2.355469-5.480469 7.574219-3.125 11.65625zm0 0"/><path d="m334.617188 166.289062c2.523437.003907 4.921874-1.113281 6.542968-3.046874l27.425782-32.683594c2.125-2.308594 2.808593-5.601563 1.777343-8.566406-1.027343-2.964844-3.601562-5.128907-6.699219-5.628907-3.097656-.5-6.222656.742188-8.132812 3.230469l-27.425781 32.683594c-2.125 2.539062-2.589844 6.078125-1.191407 9.082031 1.398438 3.003906 4.40625 4.925781 7.71875 4.929687zm0 0"/><path d="m163.394531 163.242188c3.058594 3.496093 8.347657 3.902343 11.90625.917968 3.558594-2.984375 4.074219-8.261718 1.167969-11.882812l-27.445312-32.683594c-1.910157-2.488281-5.03125-3.730469-8.132813-3.230469-3.097656.5-5.671875 2.664063-6.699219 5.628907-1.027344 2.964843-.347656 6.257812 1.777344 8.566406zm0 0"/><path d="m100.113281 177.902344 36.957031 21.332031c2.640626 1.527344 5.894532 1.527344 8.535157 0s4.269531-4.34375 4.265625-7.394531c0-3.050782-1.625-5.867188-4.269532-7.390625l-36.957031-21.335938c-4.082031-2.355469-9.304687-.953125-11.660156 3.128907-2.355469 4.082031-.957031 9.304687 3.128906 11.660156zm0 0"/><path d="m82.617188 234.667969 42.019531 7.40625c.488281.082031.988281.125 1.484375.128906 4.410156-.023437 8.074218-3.402344 8.457031-7.792969.382813-4.394531-2.640625-8.351562-6.980469-9.140625l-42.019531-7.414062c-4.640625-.816407-9.066406 2.28125-9.882813 6.925781-.820312 4.640625 2.28125 9.066406 6.921876 9.886719zm0 0"/><path d="m134.519531 276.652344c-.820312-4.640625-5.242187-7.738282-9.882812-6.921875l-42.019531 7.414062c-4.335938.785157-7.363282 4.746094-6.980469 9.140625.382812 4.390625 4.050781 7.769532 8.457031 7.789063.5.003906.996094-.039063 1.484375-.125l42.019531-7.410157c2.230469-.390624 4.210938-1.65625 5.507813-3.507812 1.300781-1.855469 1.808593-4.152344 1.414062-6.378906zm0 0"/><path d="m148.726562 315.683594c-1.128906-1.960938-2.992187-3.394532-5.179687-3.980469-2.1875-.589844-4.515625-.285156-6.476563.847656l-36.957031 21.332031c-2.644531 1.523438-4.269531 4.34375-4.273437 7.394532 0 3.046875 1.628906 5.867187 4.269531 7.394531 2.640625 1.523437 5.894531 1.523437 8.535156 0l36.957031-21.332031c4.082032-2.359375 5.480469-7.578125 3.125-11.65625zm0 0"/><path d="m163.394531 348.542969-27.425781 32.683593c-2.125 2.3125-2.804688 5.601563-1.777344 8.570313 1.027344 2.964844 3.601563 5.125 6.699219 5.625 3.101563.503906 6.222656-.738281 8.132813-3.230469l27.425781-32.683594c2.910156-3.617187 2.390625-8.898437-1.164063-11.882812-3.558594-2.984375-8.851562-2.574219-11.90625.917969zm0 0"/><path d="m211.378906 368.257812c-2.128906-.777343-4.480468-.671874-6.53125.289063-2.054687.960937-3.640625 2.699219-4.410156 4.828125l-14.589844 40.109375c-1.613281 4.429687.671875 9.328125 5.101563 10.9375 4.429687 1.613281 9.328125-.671875 10.941406-5.101563l14.589844-40.109374c.78125-2.128907.679687-4.480469-.277344-6.535157-.957031-2.054687-2.695313-3.644531-4.824219-4.417969zm0 0"/><path d="m.167969 300.449219c.71875 4.074219 4.253906 7.050781 8.390625 7.058593.5 0 1-.042968 1.492187-.128906l16.945313-2.996094c4.441406 20.675782 11.726562 40.636719 21.652344 59.308594l-14.953126 8.652344c-2.660156 1.511719-4.308593 4.335938-4.3125 7.398438-.007812 3.0625 1.625 5.894531 4.28125 7.417968 2.65625 1.527344 5.925782 1.511719 8.566407-.035156l15.027343-8.671875c11.257813 17.886719 24.90625 34.15625 40.566407 48.351563l-11.152344 13.285156c-2.910156 3.617187-2.390625 8.898437 1.167969 11.882812s8.847656 2.578125 11.90625-.917968l11.167968-13.3125c16.671876 13 35.046876 23.652343 54.613282 31.652343l-5.902344 16.210938c-1.113281 2.882812-.582031 6.140625 1.386719 8.515625 1.96875 2.378906 5.070312 3.507812 8.109375 2.953125 3.035156-.554688 5.535156-2.710938 6.535156-5.632813l5.90625-16.210937c20.121094 6.503906 41.046875 10.191406 62.183594 10.957031v17.277344c0 4.714844 3.820312 8.535156 8.53125 8.535156 4.714844 0 8.535156-3.820312 8.535156-8.535156v-17.277344c21.132812-.761719 42.058594-4.441406 62.179688-10.941406l5.90625 16.214844c1 2.921874 3.5 5.074218 6.539062 5.628906 3.035156.558594 6.136719-.570313 8.109375-2.949219 1.96875-2.378906 2.5-5.636719 1.386719-8.515625l-5.90625-16.214844c19.566406-8 37.945312-18.648437 54.613281-31.648437l11.171875 13.308593c3.054688 3.496094 8.347656 3.902344 11.90625.921876 3.554688-2.984376 4.074219-8.265626 1.164062-11.886719l-11.152343-13.300781c15.660156-14.195313 29.308593-30.464844 40.570312-48.351563l15.023438 8.671875c4.078125 2.316406 9.265625.910156 11.609375-3.152344s.972656-9.257812-3.074219-11.628906l-14.984375-8.652344c9.9375-18.671875 17.234375-38.628906 21.683594-59.308594l16.980468 2.996094c.492188.085938.992188.128906 1.492188.128906 4.425781-.003906 8.117188-3.386718 8.5-7.796874.378906-4.410157-2.671875-8.378907-7.03125-9.140626l-17.039062-2.996093c2.957031-20.945313 2.957031-42.203125 0-63.148438l17.003906-3.003906c4.644531-.816406 7.742187-5.242187 6.925781-9.886719-.816406-4.640625-5.242187-7.742187-9.886719-6.921875l-16.980468 2.996094c-4.4375-20.675781-11.722657-40.636719-21.648438-59.308594l14.984375-8.652343c4.046875-2.371094 5.417969-7.566407 3.074219-11.628907s-7.53125-5.46875-11.609375-3.152343l-15.023438 8.679687c-11.261719-17.886719-24.910156-34.15625-40.570312-48.351563l11.152343-13.285156c2.910157-3.617187 2.390626-8.898437-1.164062-11.882812-3.558594-2.984375-8.851562-2.578125-11.90625.917968l-11.171875 13.292969c-16.667969-13-35.046875-23.648437-54.613281-31.648437l5.90625-16.214844c1.113281-2.878906.582031-6.136719-1.386719-8.515625-1.972656-2.378906-5.074219-3.507813-8.109375-2.949219-3.039062.554688-5.539062 2.707032-6.539062 5.628906l-5.90625 16.214844c-20.121094-6.5-41.046876-10.179687-62.179688-10.941406v-17.277344c0-4.714844-3.820312-8.535156-8.535156-8.535156-4.710938 0-8.53125 3.820312-8.53125 8.535156v17.277344c-21.132813.761719-42.058594 4.441406-62.183594 10.941406l-5.90625-16.214844c-1-2.921874-3.5-5.074218-6.535156-5.628906-3.039063-.558594-6.140625.570313-8.109375 2.949219s-2.5 5.636719-1.386719 8.515625l5.902344 16.214844c-19.566406 8-37.941406 18.648437-54.613282 31.648437l-11.167968-13.308593c-3.058594-3.496094-8.347656-3.902344-11.90625-.921876-3.558594 2.984376-4.078125 8.265626-1.167969 11.886719l11.152344 13.300781c-15.660157 14.195313-29.308594 30.464844-40.566407 48.351563l-15.027343-8.671875c-4.078125-2.316406-9.261719-.910156-11.609375 3.152344-2.34375 4.0625-.972656 9.257812 3.074218 11.628906l14.984376 8.652344c-9.933594 18.671875-17.230469 38.628906-21.683594 59.308594l-16.980469-2.996094c-4.640625-.816406-9.066406 2.28125-9.886719 6.925781-.816406 4.640625 2.285156 9.066406 6.925782 9.882813l17.042968 2.996093c-2.960937 20.945313-2.960937 42.203125 0 63.148438l-17.007812 3.003906c-4.636719.816406-7.730469 5.234375-6.921875 9.871094zm179.105469-244.90625c47.132812-17.144531 98.792968-17.144531 145.921874 0 84.273438 30.675781 140.363282 110.785156 140.363282 200.464843 0 89.683594-56.089844 169.789063-140.363282 200.464844-47.128906 17.144532-98.789062 17.144532-145.921874 0-84.269532-30.675781-140.359376-110.78125-140.359376-200.464844 0-89.679687 56.089844-169.789062 140.359376-200.464843zm0 0"/></svg>