<svg id="Capa_1" enable-background="new 0 0 512 512" height="512" viewBox="0 0 512 512" width="512" xmlns="http://www.w3.org/2000/svg"><g><path d="m296 150c41.355 0 75-33.645 75-75s-33.644-75-75-75-75 33.645-75 75 33.645 75 75 75zm0-120c24.813 0 45 20.187 45 45s-20.187 45-45 45-45-20.187-45-45 20.187-45 45-45z"/><circle cx="76" cy="420" r="15"/><circle cx="161" cy="442" r="15"/><circle cx="256" cy="442" r="15"/><path d="m497 342c-8.469 0-16.514.1-24.269.299l4.965-18.529c2.144-8.002-2.604-16.227-10.607-18.371l-31.883-8.543 25.966-63.866c4.956-12.19 4.438-25.939-1.421-37.721s-16.508-20.493-29.219-23.898c-12.706-3.405-26.286-1.188-37.252 6.087-10.965 7.274-18.288 18.922-20.091 31.958l-9.446 68.292-31.885-8.543c-3.841-1.03-7.938-.491-11.382 1.499-3.445 1.989-5.959 5.265-6.989 9.108l-17.14 63.966c-1.556 5.808-2.399 11.644-2.539 17.474-11.752.524-24.234.788-37.808.788-57.687 0-86.383-4.548-116-9.458v-45.746c10.955 7.657 24.627 13.955 40 13.955 37.014 0 64.215-36.48 67.194-40.64 3.741-5.222 3.741-12.248 0-17.47-2.979-4.161-30.18-40.641-67.194-40.641-15.373 0-29.045 6.298-40 13.955v-21.717c11.611-9.886 34.375-32.993 34.375-62.238 0-37.013-36.48-64.214-40.64-67.194-5.223-3.741-12.248-3.741-17.471 0-4.159 2.98-40.64 30.181-40.64 67.194 0 29.245 22.764 52.352 34.375 62.238v21.717c-10.954-7.657-24.625-13.955-39.999-13.955-37.014 0-64.215 36.48-67.194 40.64-3.741 5.222-3.741 12.248 0 17.47 2.979 4.16 30.181 40.64 67.194 40.64 15.373 0 29.045-6.298 40-13.955v41.036c-23.489-3.265-51.766-5.831-95-5.831-8.284 0-15 6.716-15 15v140c0 8.284 6.716 15 15 15h482c8.284 0 15-6.716 15-15v-140c0-8.284-6.716-15-15-15zm-94.094-128.474c.634-4.582 3.105-8.513 6.959-11.069 3.854-2.557 8.44-3.304 12.903-2.109 4.467 1.197 8.062 4.137 10.12 8.277 2.06 4.141 2.234 8.782.492 13.066l-27.378 67.339-13.056-3.498zm-77.579 137.976 13.257-49.478 106.252 28.47-13.258 49.477c-6.774 25.282-33.017 35.366-51.963 39.383l12.349-46.086c2.144-8.002-2.604-16.227-10.606-18.371-7.996-2.145-16.228 2.604-18.372 10.606l-12.35 46.089c-14.403-12.957-32.082-34.814-25.309-60.09zm-145.327-99.502c13.268 0 26.711 10.551 35.309 19.375-8.598 8.824-22.041 19.375-35.309 19.375-13.272 0-26.722-10.56-35.31-19.374 8.597-8.824 22.043-19.376 35.31-19.376zm-55.005-135.303c8.732 8.543 19.38 22.07 19.38 35.303 0 13.27-10.555 26.716-19.368 35.305-8.733-8.543-19.382-22.07-19.382-35.305 0-13.265 10.547-26.705 19.37-35.303zm-54.995 174.053c-13.272 0-26.722-10.56-35.31-19.374 8.597-8.824 22.043-19.376 35.31-19.376s26.711 10.551 35.309 19.375c-8.598 8.824-22.041 19.375-35.309 19.375zm412 191.25h-452v-109.891c49.111.737 75.377 5.097 103.044 9.688 30.221 5.017 61.47 10.203 122.956 10.203 15.598 0 29.852-.334 43.246-1.01 4.131 10.532 10.59 20.869 19.326 30.821 15.276 17.399 32.409 27.661 33.131 28.089 2.317 1.375 4.962 2.1 7.654 2.1.06 0 .119 0 .179-.001.84-.01 20.808-.331 42.737-7.761 31.043-10.518 51.197-30.057 58.283-56.502l4.063-15.164c5.631-.209 11.394-.367 17.38-.46v109.888z"/></g></svg>