<?xml version='1.0' encoding='iso-8859-1'?>
<!DOCTYPE svg PUBLIC '-//W3C//DTD SVG 1.1//EN' 'http://www.w3.org/Graphics/SVG/1.1/DTD/svg11.dtd'>
<svg version="1.1" xmlns="http://www.w3.org/2000/svg" viewBox="0 0 482.017 482.017" xmlns:xlink="http://www.w3.org/1999/xlink" enable-background="new 0 0 482.017 482.017">
  <g>
    <path d="m443.491,292.897c2.975,7.318 10.153,12.497 18.526,12.497 11.028,0 20-8.972 20-20s-8.972-20-20-20c-8.376,0-15.555,5.182-18.529,12.503h-63.93v-14.75h25.96c1.989,0 3.897-0.79 5.303-2.197l21.258-21.258c2.303,0.927 4.811,1.451 7.442,1.451 11.028,0 20-8.972 20-20s-8.972-20-20-20-20,8.972-20,20c0,2.901 0.635,5.653 1.751,8.144l-18.86,18.86h-22.854v-109.304c0-4.142-3.358-7.5-7.5-7.5h-65.76c-4.142,0-7.5,3.358-7.5,7.5v50.05h-16.94v-50.05c0-4.142-3.358-7.5-7.5-7.5h-65.759c-4.142,0-7.5,3.358-7.5,7.5v50.05h-17.88v-50.05c0-4.142-3.358-7.5-7.5-7.5h-65.76c-4.142,0-7.5,3.358-7.5,7.5v109.304h-22.854l-18.86-18.86c1.116-2.491 1.751-5.242 1.751-8.144 0-11.028-8.972-20-20-20s-20,8.972-20,20 8.972,20 20,20c2.631,0 5.138-0.524 7.442-1.451l21.258,21.258c1.406,1.407 3.314,2.197 5.303,2.197h25.96v14.75h-63.93c-2.974-7.322-10.153-12.503-18.529-12.503-11.028,0-20,8.972-20,20s8.972,20 20,20c8.374,0 15.551-5.178 18.526-12.497h63.933v14.75h-33.962c-1.989,0-3.897,0.79-5.303,2.197l-21.251,21.251c-2.303-0.928-4.811-1.451-7.442-1.451-11.028,0-20,8.972-20,20s8.972,20 20,20 20-8.972 20-20c0-2.901-0.635-5.652-1.751-8.143l18.854-18.854h30.856v89.977c0,14.635 7.942,28.151 20.727,35.274 6.153,3.428 12.903,5.143 19.653,5.143s13.5-1.714 19.653-5.143c12.785-7.123 20.727-20.639 20.727-35.274v-30.73h17.88v30.73c0,14.635 7.942,28.152 20.727,35.274 6.153,3.428 12.903,5.142 19.653,5.142 6.75,0 13.5-1.714 19.653-5.142 12.785-7.123 20.727-20.639 20.727-35.274v-30.73h16.94v30.73c0,14.635 7.942,28.151 20.727,35.274 6.154,3.429 12.902,5.143 19.653,5.143 6.75,0 13.501-1.715 19.653-5.143 12.785-7.123 20.727-20.64 20.727-35.274v-89.977h30.856l18.854,18.854c-1.116,2.491-1.751,5.242-1.751,8.143 0,11.028 8.972,20 20,20s20-8.972 20-20-8.972-20-20-20c-2.631,0-5.139,0.524-7.442,1.451l-21.251-21.251c-1.406-1.407-3.314-2.197-5.303-2.197h-33.962v-14.75h63.93zm18.526-12.503c2.757,0 5,2.243 5,5s-2.243,5-5,5-5-2.243-5-5 2.243-5 5-5zm-22.496-64.25c2.757,0 5,2.243 5,5s-2.243,5-5,5-5-2.243-5-5 2.243-5 5-5zm-402.024,5c-1.42109e-14-2.757 2.243-5 5-5s5,2.243 5,5-2.243,5-5,5-5-2.243-5-5zm-17.497,69.25c-2.757,0-5-2.243-5-5s2.243-5 5-5 5,2.243 5,5-2.243,5-5,5zm14.5,64.25c-2.757,0-5-2.243-5-5s2.243-5 5-5 5,2.243 5,5-2.243,5-5,5zm418.017-5c0,2.757-2.243,5-5,5s-5-2.243-5-5 2.243-5 5-5 5,2.243 5,5zm-87.959-203.301v6.919h-50.76v-6.919h50.76zm-97.7,0v6.919h-50.759v-6.919h50.759zm-98.639,0v6.919h-50.76v-6.919h50.76zm-13.028,288.452c-7.734,4.31-16.97,4.31-24.705,5.68434e-14-8.036-4.477-13.027-12.972-13.027-22.171v-244.361h50.76v244.361c0,9.199-4.992,17.694-13.028,22.171zm28.028-67.901v-163h17.88v163h-17.88zm70.612,67.901c-7.734,4.31-16.97,4.31-24.705,0-8.036-4.477-13.027-12.972-13.027-22.171v-244.361h50.759v244.361c0,9.199-4.992,17.694-13.027,22.171zm28.027-67.901v-163h16.94v163h-16.94zm69.673,67.901c-7.734,4.309-16.97,4.31-24.705,0-8.036-4.477-13.028-12.972-13.028-22.171v-244.361h50.76v244.361c0,9.199-4.992,17.694-13.027,22.171z"/>
    <path d="m336.678,80.763c0,4.756-1.37,6.708-3.639,9.942-1.218,1.736-2.599,3.703-3.767,6.191-1.761,3.749-0.149,8.216 3.6,9.977 1.031,0.484 2.115,0.713 3.184,0.713 2.817,0 5.517-1.595 6.793-4.313 0.616-1.312 1.475-2.535 2.468-3.951 2.685-3.825 6.361-9.064 6.361-18.558s-3.676-14.733-6.361-18.558c-2.27-3.234-3.639-5.186-3.639-9.941 0-4.754 1.37-6.706 3.639-9.939 0.385-0.548 0.77-1.097 1.146-1.656 2.314-3.435 1.406-8.096-2.03-10.411-3.434-2.315-8.097-1.406-10.411,2.029-0.323,0.48-0.654,0.95-0.984,1.42-2.685,3.825-6.361,9.063-6.361,18.556 0,9.494 3.676,14.733 6.361,18.558 2.271,3.233 3.64,5.184 3.64,9.941z"/>
    <path d="m238.508,80.763c0,4.756-1.37,6.708-3.639,9.942-1.218,1.736-2.599,3.703-3.767,6.191-1.761,3.749-0.149,8.216 3.6,9.977 1.031,0.484 2.115,0.713 3.184,0.713 2.817,0 5.517-1.595 6.793-4.313 0.616-1.312 1.475-2.535 2.468-3.951 2.685-3.825 6.361-9.064 6.361-18.558s-3.676-14.733-6.361-18.558c-2.27-3.234-3.639-5.186-3.639-9.941 0-4.754 1.37-6.706 3.639-9.939 0.385-0.548 0.77-1.097 1.146-1.656 2.314-3.435 1.406-8.096-2.03-10.411-3.434-2.315-8.097-1.406-10.411,2.029-0.323,0.48-0.654,0.95-0.984,1.42-2.685,3.825-6.361,9.063-6.361,18.556 0,9.494 3.676,14.733 6.361,18.558 2.271,3.233 3.64,5.184 3.64,9.941z"/>
    <path d="m140.339,80.763c0,4.756-1.37,6.708-3.639,9.941-1.218,1.736-2.599,3.703-3.768,6.191-1.761,3.749-0.149,8.216 3.6,9.977 1.031,0.484 2.115,0.713 3.184,0.713 2.817,0 5.517-1.595 6.793-4.313 0.616-1.312 1.475-2.535 2.468-3.951 2.685-3.825 6.361-9.064 6.361-18.558s-3.676-14.733-6.361-18.558c-2.27-3.234-3.639-5.186-3.639-9.941 0-4.755 1.37-6.707 3.639-9.94 0.385-0.548 0.769-1.096 1.146-1.656 2.314-3.435 1.406-8.096-2.03-10.411-3.434-2.315-8.095-1.406-10.411,2.029-0.323,0.48-0.653,0.95-0.983,1.42-2.685,3.825-6.361,9.063-6.361,18.557 0,9.494 3.676,14.733 6.361,18.558 2.27,3.234 3.64,5.185 3.64,9.942z"/>
  </g>
</svg>
