<?xml version="1.0" encoding="iso-8859-1"?>
<!-- Generator: Adobe Illustrator 19.0.0, SVG Export Plug-In . SVG Version: 6.00 Build 0)  -->
<svg version="1.1" id="Capa_1" xmlns="http://www.w3.org/2000/svg" xmlns:xlink="http://www.w3.org/1999/xlink" x="0px" y="0px"
	 viewBox="0 0 496 496" style="enable-background:new 0 0 496 496;" xml:space="preserve">
<g>
	<g>
		<path d="M480,449.472V400c0-8.824-7.176-16-16-16h-16c-8.824,0-16,7.176-16,16v16h-32V64h24c13.232,0,24-10.768,24-24
			s-10.768-24-24-24h-25.472C395.216,6.712,386.416,0,376,0h-16c-10.416,0-19.216,6.712-22.528,16H318.52
			C315.216,6.712,306.416,0,296,0h-16c-10.416,0-19.216,6.712-22.528,16H238.52C235.216,6.712,226.416,0,216,0h-16
			c-10.416,0-19.216,6.712-22.528,16H158.52C155.216,6.712,146.416,0,136,0h-16c-10.416,0-19.216,6.712-22.528,16H72
			c-13.232,0-24,10.768-24,24s10.768,24,24,24h24v352H64v-16c0-8.824-7.176-16-16-16H32c-8.824,0-16,7.176-16,16v49.472
			C6.712,452.784,0,461.584,0,472v24h80v-24c0-2.816-0.576-5.488-1.472-8H97.48c3.312,9.288,12.112,16,22.528,16h16
			c10.416,0,19.216-6.712,22.528-16h18.952c3.312,9.288,12.112,16,22.528,16h16c10.416,0,19.216-6.712,22.528-16h18.952
			c3.312,9.288,12.112,16,22.528,16h16c10.416,0,19.216-6.712,22.528-16h18.952c3.312,9.288,12.112,16,22.528,16h16
			c10.416,0,19.216-6.712,22.528-16h18.952c-0.936,2.512-1.512,5.184-1.512,8v24h80v-24C496,461.584,489.288,452.784,480,449.472z
			 M400,32h24c4.416,0,8,3.592,8,8s-3.584,8-8,8h-24V32z M32,400h16v48H32V400z M64,480H16v-8c0-4.416,3.584-8,8-8h32
			c4.416,0,8,3.584,8,8V480z M96,448H64v-16h32V448z M96,48H72c-4.416,0-8-3.592-8-8s3.584-8,8-8h24V48z M176,448h-16v-16h16V448z
			 M176,416h-16V96h-16v360c0,4.416-3.584,8-8,8h-16c-4.416,0-8-3.584-8-8V24c0-4.408,3.584-8,8-8h16c4.416,0,8,3.592,8,8v56h16V64
			h16V416z M176,48h-16V32h16V48z M224,456c0,4.416-3.584,8-8,8h-16c-4.416,0-8-3.584-8-8V24c0-4.408,3.584-8,8-8h16
			c4.416,0,8,3.592,8,8V456z M256,448h-16v-16h16V448z M256,416h-16V64h16V416z M256,48h-16V32h16V48z M304,456c0,4.416-3.584,8-8,8
			h-16c-4.416,0-8-3.584-8-8V24c0-4.408,3.584-8,8-8h16c4.416,0,8,3.592,8,8V456z M320,32h16v16h-16V32z M336,448h-16v-16h16V448z
			 M384,456c0,4.416-3.584,8-8,8h-16c-4.416,0-8-3.584-8-8v-56h-16v16h-16V64h16v320h16V24c0-4.408,3.584-8,8-8h16
			c4.416,0,8,3.592,8,8V456z M448,400h16v48h-16V400z M400,448v-16h32v16H400z M480,480h-48v-8c0-4.416,3.584-8,8-8h32
			c4.416,0,8,3.584,8,8V480z"/>
	</g>
</g>
<g>
</g>
<g>
</g>
<g>
</g>
<g>
</g>
<g>
</g>
<g>
</g>
<g>
</g>
<g>
</g>
<g>
</g>
<g>
</g>
<g>
</g>
<g>
</g>
<g>
</g>
<g>
</g>
<g>
</g>
</svg>
