<?xml version="1.0" encoding="iso-8859-1"?>
<!-- Generator: Adobe Illustrator 19.0.0, SVG Export Plug-In . SVG Version: 6.00 Build 0)  -->
<svg version="1.1" id="Capa_1" xmlns="http://www.w3.org/2000/svg" xmlns:xlink="http://www.w3.org/1999/xlink" x="0px" y="0px"
	 viewBox="0 0 496 496" style="enable-background:new 0 0 496 496;" xml:space="preserve">
<g>
	<g>
		<g>
			<path d="M456,0H40C17.944,0,0,17.944,0,40v320c0,22.056,17.944,40,40,40h16v33.472c-9.288,3.312-16,12.112-16,22.528v40h128v-40
				c0-10.416-6.712-19.216-16-22.528V400h192v33.472c-9.288,3.312-16,12.112-16,22.528v40h128v-40c0-10.416-6.712-19.216-16-22.528
				V400h16c22.056,0,40-17.944,40-40V40C496,17.944,478.056,0,456,0z M152,480H56v-24c0-4.408,3.584-8,8-8h80c4.416,0,8,3.592,8,8
				V480z M72,432v-32h64v32H72z M440,480h-96v-24c0-4.408,3.584-8,8-8h80c4.416,0,8,3.592,8,8V480z M360,432v-32h64v32H360z
				 M480,360c0,13.232-10.768,24-24,24H40c-13.232,0-24-10.768-24-24V40c0-13.232,10.768-24,24-24h416c13.232,0,24,10.768,24,24V360
				z"/>
			<path d="M48,224h400V48H48V224z M344,64h88v16h-88V64z M344,128h56v-16h-56V96h88v16h-16v16h16v16h-88V128z M344,160h88v16h-88
				V160z M344,192h88v16h-88V192z M312,64h16v144h-16V64z M200,64h96v16h-96V64z M200,96h96v16h-96V96z M200,128h96v16h-96V128z
				 M200,160h96v16h-96V160z M200,192h96v16h-96V192z M168,64h16v144h-16V64z M64,64h88v16H64V64z M64,96h88v16H64V96z M64,128h88
				v16H64V128z M64,192h16v-16H64v-16h88v16H96v16h56v16H64V192z"/>
			<path d="M136,352h224v-80H136V352z M152,288h192v48H152V288z"/>
			<rect x="168" y="304" width="128" height="16"/>
			<rect x="312" y="304" width="16" height="16"/>
		</g>
	</g>
</g>
<g>
</g>
<g>
</g>
<g>
</g>
<g>
</g>
<g>
</g>
<g>
</g>
<g>
</g>
<g>
</g>
<g>
</g>
<g>
</g>
<g>
</g>
<g>
</g>
<g>
</g>
<g>
</g>
<g>
</g>
</svg>
