<?xml version="1.0" encoding="iso-8859-1"?>
<!-- Generator: Adobe Illustrator 19.0.0, SVG Export Plug-In . SVG Version: 6.00 Build 0)  -->
<svg version="1.1" id="Capa_1" xmlns="http://www.w3.org/2000/svg" xmlns:xlink="http://www.w3.org/1999/xlink" x="0px" y="0px"
	 viewBox="0 0 488 488" style="enable-background:new 0 0 488 488;" xml:space="preserve">
<g>
	<g>
		<path d="M306.496,236.616c-2.58-3.588-7.58-4.404-11.168-1.824l-14.024,10.072l-14.024-10.072c-2.791-2.008-6.553-2.008-9.344,0
			l-13.984,10.064l-13.992-10.064c-2.791-2.008-6.553-2.008-9.344,0l-13.984,10.064l-13.952-10.064
			c-3.585-2.585-8.587-1.773-11.172,1.812c-2.585,3.585-1.773,8.587,1.812,11.172l18.632,13.432c2.793,2.012,6.559,2.012,9.352,0
			l13.984-10.064l13.992,10.064c2.791,2.008,6.553,2.008,9.344,0l13.992-10.064l14.016,10.064c2.791,2.008,6.553,2.008,9.344,0
			l18.696-13.424C308.26,245.204,309.076,240.204,306.496,236.616z"/>
	</g>
</g>
<g>
	<g>
		<path d="M220,272c-4.418,0-8,3.582-8,8v80c0,4.418,3.582,8,8,8s8-3.582,8-8v-80C228,275.582,224.418,272,220,272z"/>
	</g>
</g>
<g>
	<g>
		<path d="M268,272c-4.418,0-8,3.582-8,8v80c0,4.418,3.582,8,8,8s8-3.582,8-8v-80C276,275.582,272.418,272,268,272z"/>
	</g>
</g>
<g>
	<g>
		<path d="M244,0c-4.418,0-8,3.582-8,8v48c0,4.418,3.582,8,8,8s8-3.582,8-8V8C252,3.582,248.418,0,244,0z"/>
	</g>
</g>
<g>
	<g>
		<path d="M162.981,75.668c-0.017-0.031-0.035-0.061-0.053-0.092l-24-41.6c-2.184-3.841-7.068-5.184-10.909-3
			c-3.841,2.184-5.184,7.068-3,10.909c0.017,0.031,0.035,0.061,0.053,0.092l24,41.6c2.184,3.841,7.068,5.184,10.909,3
			S165.165,79.508,162.981,75.668z"/>
	</g>
</g>
<g>
	<g>
		<path d="M95.608,137.072l-41.6-24c-3.841-2.184-8.725-0.841-10.909,3c-2.163,3.805-0.867,8.642,2.909,10.856l41.6,24
			c3.841,2.184,8.725,0.841,10.909-3C100.68,144.123,99.384,139.286,95.608,137.072z"/>
	</g>
</g>
<g>
	<g>
		<path d="M68,224H20c-4.418,0-8,3.582-8,8s3.582,8,8,8h48c4.418,0,8-3.582,8-8S72.418,224,68,224z"/>
	</g>
</g>
<g>
	<g>
		<path d="M98.578,316.02c-2.183-3.841-7.067-5.185-10.908-3.002c-0.031,0.018-0.062,0.036-0.093,0.054l-41.6,24
			c-3.841,2.183-5.185,7.067-3.002,10.908c2.183,3.841,7.067,5.185,10.908,3.002c0.031-0.018,0.062-0.036,0.093-0.054l41.6-24
			C99.417,324.745,100.761,319.861,98.578,316.02z"/>
	</g>
</g>
<g>
	<g>
		<path d="M441.992,337.072l-41.6-24c-3.811-2.235-8.713-0.957-10.948,2.854c-2.235,3.811-0.957,8.713,2.854,10.948
			c0.031,0.018,0.062,0.036,0.093,0.054l41.6,24c3.841,2.183,8.725,0.839,10.908-3.002
			C447.063,344.122,445.767,339.286,441.992,337.072z"/>
	</g>
</g>
<g>
	<g>
		<path d="M468,224h-48c-4.418,0-8,3.582-8,8s3.582,8,8,8h48c4.418,0,8-3.582,8-8S472.418,224,468,224z"/>
	</g>
</g>
<g>
	<g>
		<path d="M444.888,115.981c-2.214-3.776-7.051-5.072-10.856-2.909l-41.6,24c-3.826,2.209-5.137,7.102-2.928,10.928
			c1.429,2.475,4.07,4,6.928,4c1.405,0.003,2.785-0.367,4-1.072l41.6-24C445.844,124.694,447.122,119.792,444.888,115.981z"/>
	</g>
</g>
<g>
	<g>
		<path d="M360.074,31.028c-3.811-2.235-8.713-0.957-10.948,2.854c-0.018,0.031-0.036,0.062-0.054,0.093l-24,41.6
			c-2.209,3.826-0.898,8.719,2.928,10.928c3.826,2.209,8.719,0.898,10.928-2.928l24-41.6
			C365.163,38.165,363.885,33.263,360.074,31.028z"/>
	</g>
</g>
<g>
	<g>
		<path d="M373.291,152.003C345.589,107.212,296.664,79.966,244,80c-83.894-0.054-151.948,67.911-152.003,151.805
			C91.963,284.47,119.21,333.394,164,361.096V400c0,4.418,3.582,8,8,8h144c4.418,0,8-3.582,8-8v-38.904
			C395.351,316.968,417.419,223.353,373.291,152.003z M312,349.64L312,349.64c-2.473,1.428-3.997,4.065-4,6.92V392H180v-35.44
			c-0.003-2.855-1.527-5.492-4-6.92c-65.048-37.555-87.335-120.732-49.779-185.779C163.776,98.813,246.952,76.526,312,114.081
			s87.335,120.732,49.779,185.779C349.843,320.535,332.675,337.703,312,349.64z"/>
	</g>
</g>
<g>
	<g>
		<path d="M244,112c-42.851,0.089-82.429,22.936-103.936,60c-2.37,3.729-1.269,8.673,2.459,11.043
			c3.729,2.37,8.673,1.269,11.043-2.459c0.121-0.19,0.233-0.384,0.337-0.584c18.646-32.124,52.953-51.925,90.096-52
			c4.418,0,8-3.582,8-8S248.418,112,244,112z"/>
	</g>
</g>
<g>
	<g>
		<path d="M316,424H172c-4.418,0-8,3.582-8,8v48c0,4.418,3.582,8,8,8h144c4.418,0,8-3.582,8-8v-48C324,427.582,320.418,424,316,424z
			 M308,472H180v-32h128V472z"/>
	</g>
</g>
<g>
</g>
<g>
</g>
<g>
</g>
<g>
</g>
<g>
</g>
<g>
</g>
<g>
</g>
<g>
</g>
<g>
</g>
<g>
</g>
<g>
</g>
<g>
</g>
<g>
</g>
<g>
</g>
<g>
</g>
</svg>
