<svg id="Capa_1" enable-background="new 0 0 512 512" height="512" viewBox="0 0 512 512" width="512" xmlns="http://www.w3.org/2000/svg"><g><path d="m497 82h-200c-8.284 0-15 6.716-15 15v145h-267c-8.284 0-15 6.716-15 15v240c0 8.284 6.716 15 15 15h482c8.284 0 15-6.716 15-15v-400c0-8.284-6.716-15-15-15zm-185 30h170v130h-170zm-282 160h252v30h-252zm0 60h172v150h-172zm202 0h50v150h-50zm80 150v-210h170v210z"/><path d="m15 200h220c8.284 0 15-6.716 15-15v-40c0-4.379-1.914-8.539-5.238-11.389l-64.762-55.51v-63.101c0-8.284-6.716-15-15-15h-80c-8.284 0-15 6.716-15 15v63.101l-64.762 55.51c-3.324 2.85-5.238 7.01-5.238 11.389v40c0 8.284 6.716 15 15 15zm85-170h50v40h-50zm-70 121.899 60.549-51.899h68.902l60.549 51.899v18.101h-190z"/><path d="m357 152c-8.284 0-15 6.716-15 15v30c0 8.284 6.716 15 15 15s15-6.716 15-15v-30c0-8.284-6.716-15-15-15z"/><path d="m357 302c-8.284 0-15 6.716-15 15v30c0 8.284 6.716 15 15 15s15-6.716 15-15v-30c0-8.284-6.716-15-15-15z"/><path d="m157 377c-8.284 0-15 6.716-15 15v30c0 8.284 6.716 15 15 15s15-6.716 15-15v-30c0-8.284-6.716-15-15-15z"/></g></svg>