<svg height="512pt" viewBox="-37 0 512 512" width="512pt" xmlns="http://www.w3.org/2000/svg"><path d="m278.148438 460.980469c.820312 4.03125 4.105468 7.238281 8.175781 7.910156 4.054687.667969 8.242187-1.296875 10.285156-4.871094 2.078125-3.632812 1.667969-8.257812-1.03125-11.464843-2.6875-3.195313-7.246094-4.347657-11.144531-2.882813-4.523438 1.695313-7.234375 6.566406-6.285156 11.308594zm0 0"/><path d="m264.855469 315.109375c0-.148437 0-.296875-.003907-.457031-.011718-.359375-.035156-.71875-.0625-1.078125l-.007812-.136719c-1.601562-31.773438-15.949219-53.375-16.558594-54.277344-1.589844-2.355468-4.105468-3.921875-6.914062-4.3125-2.8125-.394531-5.660156.429688-7.828125 2.261719l-7.335938 6.195313-9.722656-15.445313c-1.628906-2.589844-4.359375-4.292969-7.402344-4.617187-3.046875-.324219-6.070312.765624-8.210937 2.953124-33.582032 34.339844-30.332032 70.476563-30.179688 71.996094.023438.238282.058594.472656.097656.703125 2.144532 21.191407 22.597657 37.429688 47.21875 37.425781.273438 0 .542969 0 .816407-.003906 24.507812-.355468 44.617187-17.101562 46.015625-38.21875.09375-.761718.128906-1.53125.109375-2.289062-.007813-.214844-.019531-.425782-.027344-.636719zm-20.023438 1.457031c-.574219 10.867188-12.15625 19.542969-26.363281 19.75-14.53125.214844-27.058594-8.703125-27.882812-19.875-.019532-.269531-.050782-.53125-.089844-.792968-.183594-3.746094-.289063-23.738282 16.199218-45.695313l8.648438 13.738281c1.542969 2.449219 4.070312 4.113282 6.929688 4.554688 2.859374.441406 5.773437-.375 7.984374-2.238282l6.601563-5.578124c3.363281 7.777343 7.234375 19.632812 7.949219 34.09375.003906.050781.007812.101562.011718.152343l.035157.5v.296875c0 .066406.003906.132813.003906.199219l.015625.347656c-.019531.183594-.035156.363281-.042969.546875zm0 0"/><path d="m436.710938 346.179688-46.792969-252.222657c-6.1875-33.351562-32.886719-57.5625-63.488281-57.5625h-25.367188v-16.394531h14.65625c5.519531 0 10-4.476562 10-10s-4.480469-10-10-10h-194.625c-5.523438 0-10 4.476562-10 10s4.476562 10 10 10h15.921875v16.394531h-25.390625c-30.601562 0-57.300781 24.210938-63.488281 57.5625l-46.792969 252.222657c-.890625 4.800781-1.34375 9.722656-1.34375 14.628906 0 39.804687 29.082031 72.1875 64.832031 72.1875h46.933594l-26.921875 17.667968c-.011719.007813-.023438.015626-.035156.023438-.316406.210938-.621094.441406-.914063.6875-.070312.058594-.136719.125-.207031.1875-.210938.1875-.417969.382812-.613281.589844-.085938.089844-.167969.183594-.246094.273437-.183594.207031-.355469.421875-.519531.640625-.058594.082032-.121094.160156-.179688.242188-.433594.621094-.792968 1.289062-1.078125 2-.03125.082031-.058593.164062-.089843.242187-.101563.277344-.191407.558594-.269532.84375-.03125.105469-.058594.210938-.082031.316407-.066406.277343-.117187.558593-.160156.84375-.015625.101562-.035157.203124-.046875.308593-.042969.382813-.074219.769531-.074219 1.160157v42.976562c0 5.523438 4.476563 10 10 10h257.332031c5.523438 0 10-4.476562 10-10v-42.976562c0-3.371094-1.699218-6.511719-4.515625-8.359376l-26.925781-17.667968h47.003906c35.746094 0 64.832032-32.382813 64.832032-72.1875 0-4.90625-.453126-9.828125-1.34375-14.628906zm-177.34375 48.214843v18.601563h-80.742188v-18.601563c10.089844 1.328125 20.359375.945313 30.511719.945313h32.1875c6.035156 0 12.046875-.167969 18.042969-.945313zm6.710937-21.546875c-7.457031 1.777344-15.054687 2.492188-22.707031 2.492188-4.53125 0-9.0625 0-13.59375 0-11.429688 0-22.855469 0-34.285156 0-7.976563 0-15.878907-.648438-23.65625-2.511719-40.542969-9.671875-70.78125-46.199219-70.78125-89.660156 0-11.441407 2.097656-22.652344 6.234374-33.324219l46.074219-118.828125h17.808594l10.742187 33.242187c1.332032 4.128907 5.175782 6.925782 9.515626 6.925782h54.136718c4.339844 0 8.183594-2.796875 9.519532-6.925782l10.738281-33.242187h18.800781l46.074219 118.832031c4.140625 10.664063 6.234375 21.875 6.234375 33.320313 0 43.488281-30.277344 80.035156-70.855469 89.679687zm-73.886719-241.832031h52.617188l-6.519532 20.167969h-39.582031zm99.28125-20h-178.335937c3.402343-10.5625 13.324219-18.222656 25-18.222656h164.855469c11.675781 0 21.597656 7.660156 25 18.222656zm-10.40625-91.015625v25.875c-.011718.171875-.027344.34375-.027344.519531s.015626.347657.027344.523438v25.875h-124.050781v-52.792969zm-261.066406 340.808594c0-3.683594.339844-7.378906 1.007812-10.980469l46.792969-252.222656c4.429688-23.878907 22.859375-41.207031 43.824219-41.207031h25.390625v16.421874c-24.988281.601563-45.136719 21.097657-45.136719 46.230469v1.964844c0 5.523437 4.476563 10 10 10h30.035156l-43.273437 111.601563c-5.03125 12.984374-7.585937 26.625-7.585937 40.550781 0 49.78125 32.601562 92.085937 77.574218 106.703125v23.128906h-13.386718c-.003907 0-.003907 0-.007813 0h-80.402344c-24.71875 0-44.832031-23.414062-44.832031-52.191406zm317.660156 103.617187v27.574219h-237.332031v-22.976562h148.191406c5.523438 0 10-4.476563 10-10 0-5.523438-4.476562-10-10-10h-124.71875l24.425781-16.027344h20.390626.011718 100.738282.011718 20.382813zm35.5625-51.425781h-80.46875s-.003906 0-.007812 0h-13.382813v-23.128906c44.972657-14.617188 77.570313-56.921875 77.570313-106.703125 0-13.925781-2.554688-27.570313-7.585938-40.554688l-43.273437-111.597656h33.171875c5.523437 0 10-4.480469 10-10v-1.964844c0-25.507812-20.75-46.257812-46.257813-46.257812h-1.925781v-16.398438h25.367188c20.964843 0 39.394531 17.332031 43.824218 41.210938l46.792969 252.222656c.667969 3.601563 1.007813 7.292969 1.007813 10.980469 0 28.777344-20.113282 52.191406-44.832032 52.191406zm0 0"/></svg>