<?xml version="1.0" encoding="iso-8859-1"?>
<!-- Generator: Adobe Illustrator 19.0.0, SVG Export Plug-In . SVG Version: 6.00 Build 0)  -->
<svg version="1.1" id="Layer_1" xmlns="http://www.w3.org/2000/svg" xmlns:xlink="http://www.w3.org/1999/xlink" x="0px" y="0px"
	 viewBox="0 0 512 512" style="enable-background:new 0 0 512 512;" xml:space="preserve">
<g>
	<g>
		<path d="M395.636,302.545h-58.182v-58.182c0-6.982-4.655-11.636-11.636-11.636h-23.273l20.945-27.927
			c3.491-4.655,2.327-12.8-2.327-16.291s-12.8-2.327-16.291,2.327l-34.909,46.545c-2.327,3.491-3.491,8.145-1.164,11.636
			S274.618,256,279.273,256h34.909v46.545H197.818v-93.091h46.545l-20.945,27.927c-3.491,4.655-2.327,12.8,2.327,16.291
			s12.8,2.327,16.291-2.327l34.909-46.545c2.327-3.491,3.491-8.145,1.164-11.636s-5.818-6.982-10.473-6.982h-81.455
			c-6.982,0-11.636,4.655-11.636,11.636v104.727c-6.982,0-11.636,4.655-11.636,11.636s4.655,11.636,11.636,11.636h221.091
			c6.982,0,11.636,4.655,11.636,11.636c0,6.982-4.655,11.636-11.636,11.636H116.364c-6.982,0-11.636-4.655-11.636-11.636
			c0-6.982,4.655-11.636,11.636-11.636H128c11.636,0,11.636-10.473,11.636-18.618V139.636c0-64,52.364-116.364,116.364-116.364
			s116.364,52.364,116.364,116.364v128c0,6.982,4.655,11.636,11.636,11.636s11.636-4.655,11.636-11.636v-128
			C395.636,62.836,332.8,0,256,0S116.364,62.836,116.364,139.636c0,0,0,123.345,0,162.909c-19.782,0-34.909,15.127-34.909,34.909
			c0,19.782,15.127,34.909,34.909,34.909h279.273c19.782,0,34.909-15.127,34.909-34.909
			C430.545,317.673,415.418,302.545,395.636,302.545z"/>
	</g>
</g>
<g>
	<g>
		<path d="M186.182,395.636c-6.982,0-11.636,4.655-11.636,11.636v93.091c0,6.982,4.655,11.636,11.636,11.636
			s11.636-4.655,11.636-11.636v-93.091C197.818,400.291,193.164,395.636,186.182,395.636z"/>
	</g>
</g>
<g>
	<g>
		<path d="M325.818,395.636c-6.982,0-11.636,4.655-11.636,11.636v93.091c0,6.982,4.655,11.636,11.636,11.636
			s11.636-4.655,11.636-11.636v-93.091C337.455,400.291,332.8,395.636,325.818,395.636z"/>
	</g>
</g>
<g>
</g>
<g>
</g>
<g>
</g>
<g>
</g>
<g>
</g>
<g>
</g>
<g>
</g>
<g>
</g>
<g>
</g>
<g>
</g>
<g>
</g>
<g>
</g>
<g>
</g>
<g>
</g>
<g>
</g>
</svg>
