<?xml version="1.0" encoding="iso-8859-1"?>
<!-- Generator: Adobe Illustrator 19.1.0, SVG Export Plug-In . SVG Version: 6.00 Build 0)  -->
<svg version="1.1" id="Capa_1" xmlns="http://www.w3.org/2000/svg" xmlns:xlink="http://www.w3.org/1999/xlink" x="0px" y="0px"
	 viewBox="0 0 283.102 283.102" style="enable-background:new 0 0 283.102 283.102;" xml:space="preserve">
<g>
	<g id="Layer_1_31_">
		<path d="M123.249,176.626v17.102c0,0.767-0.37,1.499-0.99,1.973l-6.577,4.928c-0.435,0.331-0.948,0.474-1.46,0.474
			c-0.767,0-1.499-0.324-1.973-0.979c-0.805-1.059-0.586-2.635,0.474-3.44l5.586-4.199v-10.888L123.249,176.626z M145.275,154.338
			c0.042,0,0.077,0,0.112,0.039v-0.143L145.275,154.338z M179.039,67.013c-1.167-0.728-2.666-0.331-3.398,0.805l-18.416,30.324
			c-0.435,0.767-0.474,1.687-0.035,2.454l7.27,13.515l3.614-3.618l-5.918-10.996l17.722-29.122
			C180.573,69.209,180.211,67.715,179.039,67.013z M120.032,119.625l10.267-19.028c0.401-0.767,0.366-1.687-0.073-2.454
			L111.81,67.819c-0.728-1.137-2.227-1.533-3.398-0.805c-1.133,0.701-1.533,2.196-0.805,3.363l17.684,29.122l-10.375,19.286
			c-0.474,0.882-0.362,1.98,0.293,2.747l19.217,22.981l3.506-3.544L120.032,119.625z M138.521,147.107l-0.039,0.039
			c0,0.039,0.039,0.039,0.039,0.039s0.035,0,0.035-0.039C138.556,147.107,138.521,147.107,138.521,147.107z M142.501,150.32
			l-0.25,0.293c0.104-0.077,0.181-0.143,0.289-0.22C142.501,150.358,142.501,150.358,142.501,150.32z M145.275,154.338
			c0.042,0,0.077,0,0.112,0.039v-0.143L145.275,154.338z M149.882,120.762c0-4.935-2.446-11.477-5.297-11.477
			c-3.178,0-5.371,8.441-5.336,11.477c0,9.497-0.254,14.251-0.435,19.325l11.142-11.288
			C149.921,126.429,149.882,123.794,149.882,120.762z M142.501,150.32l-0.25,0.293c0.104-0.077,0.181-0.143,0.289-0.22
			C142.501,150.358,142.501,150.358,142.501,150.32z M145.275,154.338c0.042,0,0.077,0,0.112,0.039v-0.143L145.275,154.338z
			 M150.688,152.955l-0.039,0.039l-0.035-0.039C150.649,152.955,150.649,152.955,150.688,152.955z M145.39,154.234v0.143
			c-0.039-0.039-0.073-0.039-0.112-0.039L145.39,154.234z M145.39,154.234v0.143c-0.039-0.039-0.073-0.039-0.112-0.039
			L145.39,154.234z M150.688,152.955l-0.039,0.039l-0.035-0.039C150.649,152.955,150.649,152.955,150.688,152.955z M145.39,154.234
			v0.143c-0.039-0.039-0.073-0.039-0.112-0.039L145.39,154.234z M142.539,150.397c-0.108,0.077-0.185,0.143-0.289,0.22l0.25-0.293
			C142.501,150.358,142.501,150.358,142.539,150.397z M238.852,38.885l-3.803,3.83c-24.407-23.124-57.324-37.302-93.5-37.302
			C66.503,5.413,5.411,66.497,5.411,141.551c0,36.72,14.652,70.115,38.4,94.629l-3.833,3.837
			c-24.738-25.509-39.975-60.213-39.975-98.47C0.002,63.5,63.502,0,141.549,0C179.22,0.004,213.459,14.767,238.852,38.885z
			 M283.1,141.555c0,78.047-63.5,141.547-141.547,141.547c-34.566,0-66.243-12.425-90.869-33.11l3.833-3.868
			c23.605,19.691,53.968,31.565,87.036,31.565c75.046,0,136.138-61.092,136.138-136.138c0-33.622-12.275-64.451-32.555-88.242
			l3.799-3.837C270.236,74.253,283.1,106.434,283.1,141.555z M129.421,144.699L100.48,112.14c-0.362-0.37-0.801-0.663-1.314-0.767
			l-18.855-4.092c-1.318-0.254-2.666,0.551-2.963,1.903c-0.25,1.31,0.582,2.628,1.899,2.92l18.088,3.914l23.563,26.487
			c-6.977-1.792-14.867-3.799-23.274-6.103c-6.141-1.68-12.498-2.52-18.928-2.52c-17.279,0-34.05,6.577-34.42,11.693
			c-0.108,1.499,0.882,2.778,1.649,3.583c4.014,4.342,20.057,13.92,41.432,13.92c2.778,0,5.556-0.15,8.329-0.474
			c8.407-1.025,16.297-1.83,23.313-2.52l2.743-2.739l2.701-2.747c-1.572,0.15-3.178,0.331-4.785,0.482
			c-7.309,0.728-15.638,1.526-24.553,2.628c-2.558,0.293-5.151,0.435-7.748,0.435c-19.837,0-34.566-8.803-37.745-12.167
			c2.963-2.265,14.07-7.193,29.084-7.193c5.999,0,11.912,0.805,17.614,2.331c8.695,2.416,16.771,4.5,23.929,6.291
			c2.158,0.551,4.35,1.098,6.472,1.641c0.875,0.254,1.714,0.474,2.554,0.701l1.973-2.007l0.474-0.482l1.537-1.572
			C132.091,145.392,130.808,145.061,129.421,144.699z M244.843,145.573c0.143,1.499-0.878,2.778-1.607,3.583
			c-4.061,4.342-20.096,13.92-41.47,13.92c-2.782,0-5.556-0.15-8.295-0.474c-8.915-1.098-17.21-1.903-24.515-2.635
			c-2.523-0.254-4.785-0.474-6.869-0.693l7.343,3.544c0.844,0.401,1.387,1.279,1.387,2.227v27.443l5.59,4.199
			c1.056,0.805,1.318,2.377,0.474,3.44c-0.474,0.655-1.206,0.979-1.976,0.979c-0.509,0-1.025-0.143-1.46-0.474l-6.577-4.928
			c-0.62-0.474-0.952-1.202-0.952-1.973v-27.15l-14.536-6.977l-0.663,0.693l0.586,12.386v0.039c1.714,0.909,2.886,2.739,2.886,4.816
			c0,3.078-2.485,5.559-5.552,5.559c-0.728,0-1.46-0.15-2.119-0.443l-1.645,14.763l-1.684-15.087
			c-0.801,0.512-1.753,0.767-2.739,0.767c-3.071,0-5.556-2.485-5.556-5.559c0-2.331,1.464-4.342,3.506-5.147v-11.107l3.036-3.071
			l0.697-0.728l0.254-0.22l0.986-1.025l0.693-0.693l1.202-1.21c0.042,0,0.077,0,0.112,0.039v-0.143l2.007-2.046l0.405-0.405
			l1.607-1.641l0.039-0.039l1.129-1.098l2.489-2.558c1.348-0.362,2.809-0.767,4.454-1.167l29.484-33.141
			c0.331-0.37,0.805-0.663,1.314-0.767l18.859-4.092c1.275-0.254,2.628,0.551,2.92,1.903c0.293,1.31-0.547,2.628-1.896,2.92
			l-18.054,3.914l-24.041,27.038c0.512-0.112,1.025-0.254,1.572-0.405c7.124-1.822,15.195-3.868,23.821-6.245
			c6.141-1.68,12.498-2.52,18.928-2.52C227.706,133.876,244.481,140.457,244.843,145.573z M239.507,145.97
			c-2.959-2.265-14.066-7.193-29.084-7.193c-5.995,0-11.912,0.805-17.649,2.369c-8.657,2.377-16.732,4.461-23.856,6.253
			c-2.963,0.728-5.883,1.499-8.661,2.227h-0.035c-3.29,0.882-6.288,1.68-8.738,2.408c-0.289,0.112-0.582,0.189-0.875,0.262
			c-0.478,0.181-0.913,0.285-1.318,0.428c0.401,0.077,0.84,0.15,1.318,0.227l0.035,0.039l0.039-0.039
			c1.714,0.22,3.687,0.512,5.918,0.767c3.914,0.435,8.407,0.909,12.86,1.356c7.305,0.728,15.642,1.526,24.592,2.628
			c2.52,0.293,5.113,0.435,7.713,0.435C221.608,158.137,236.332,149.333,239.507,145.97z M138.521,147.107l-0.039,0.039
			c0,0.039,0.039,0.039,0.039,0.039s0.035,0,0.035-0.039C138.556,147.107,138.521,147.107,138.521,147.107z M142.501,150.32
			l-0.25,0.293c0.104-0.077,0.181-0.143,0.289-0.22C142.501,150.358,142.501,150.358,142.501,150.32z M138.521,147.107l-0.039,0.039
			c0,0.039,0.039,0.039,0.039,0.039s0.035,0,0.035-0.039C138.556,147.107,138.521,147.107,138.521,147.107z M251.751,36.215
			c-1.029-1.025-2.631-0.986-3.618,0l-5.883,5.952l-3.833,3.876l-68,68.805l-3.614,3.648l-16.663,16.879l-9.135,9.246l-2.485,2.485
			c0,0,0.035,0,0.035,0.039c0,0.039-0.035,0.039-0.035,0.039s-0.039,0-0.039-0.039l-0.986,0.986l-1.025,1.025l-1.607,1.641
			l-0.366,0.37l-2.593,2.628l-0.516,0.52l-2.227,2.265l-2.739,2.739l-0.439,0.474l-7.675,7.744l-71.17,72.01l-3.799,3.837
			l-5.444,5.517c-1.025,1.025-0.986,2.628,0,3.618c0.509,0.505,1.171,0.759,1.791,0.759c0.693,0,1.352-0.254,1.826-0.759
			l5.594-5.667l3.799-3.837l67.406-68.181l4.935-5.005l6.137-6.207l5.116-5.193l0.293-0.293l2.485-2.52l2.446-2.446l1.098-1.137
			l0.801-0.767l0.108-0.143l0.223-0.22v-0.039l0.293-0.254l0.25-0.293l1.387-1.348l0.401-0.443l6.068-6.133l22.43-22.696
			l69.167-69.965l3.795-3.837l5.999-6.064C252.776,38.812,252.733,37.201,251.751,36.215z"/>
	</g>
</g>
<g>
</g>
<g>
</g>
<g>
</g>
<g>
</g>
<g>
</g>
<g>
</g>
<g>
</g>
<g>
</g>
<g>
</g>
<g>
</g>
<g>
</g>
<g>
</g>
<g>
</g>
<g>
</g>
<g>
</g>
</svg>
