<?xml version="1.0" encoding="iso-8859-1"?>
<!-- Generator: Adobe Illustrator 18.0.0, SVG Export Plug-In . SVG Version: 6.00 Build 0)  -->
<!DOCTYPE svg PUBLIC "-//W3C//DTD SVG 1.1//EN" "http://www.w3.org/Graphics/SVG/1.1/DTD/svg11.dtd">
<svg version="1.1" id="Capa_1" xmlns="http://www.w3.org/2000/svg" xmlns:xlink="http://www.w3.org/1999/xlink" x="0px" y="0px"
	 viewBox="0 0 310.919 310.919" style="enable-background:new 0 0 310.919 310.919;" xml:space="preserve">
<g>
	<path d="M155.166,228.959c-3.59,0-6.5,2.91-6.5,6.5v33c0,3.59,2.91,6.5,6.5,6.5s6.5-2.91,6.5-6.5v-33
		C161.666,231.87,158.756,228.959,155.166,228.959z"/>
	<path d="M128.729,216.697l-23.169,23.171c-2.594,2.594-2.593,6.8,0.001,9.394c1.297,1.297,2.996,1.944,4.696,1.944
		s3.4-0.648,4.697-1.945l23.169-23.171c2.594-2.594,2.593-6.8-0.001-9.394C135.529,214.102,131.323,214.103,128.729,216.697z"/>
	<path d="M182.19,216.697c-2.595-2.593-6.799-2.594-9.394-0.001c-2.594,2.594-2.595,6.8-0.001,9.394l23.169,23.171
		c1.298,1.297,2.997,1.945,4.697,1.945c1.699,0,3.399-0.648,4.696-1.944c2.594-2.594,2.595-6.8,0.001-9.394L182.19,216.697z"/>
	<path d="M51.166,177.959c-3.59,0-6.5,2.91-6.5,6.5v33c0,3.59,2.91,6.5,6.5,6.5c3.59,0,6.5-2.91,6.5-6.5v-33
		C57.666,180.87,54.756,177.959,51.166,177.959z"/>
	<path d="M25.114,166.217L1.945,189.388c-2.594,2.594-2.594,6.8,0,9.394c1.297,1.297,2.996,1.944,4.696,1.944s3.4-0.648,4.697-1.945
		l23.169-23.171c2.594-2.594,2.593-6.8-0.001-9.394C31.914,163.623,27.707,163.624,25.114,166.217z"/>
	<path d="M101.743,189.388l-23.17-23.171c-2.593-2.593-6.798-2.595-9.392,0c-2.594,2.594-2.594,6.799,0,9.393l23.17,23.171
		c1.297,1.297,2.996,1.945,4.696,1.945c1.699,0,3.399-0.648,4.696-1.945C104.336,196.187,104.336,191.982,101.743,189.388z"/>
	<path d="M266.666,84.159V61.627c13-3.153,25.288-6.838,37.654-11.071c3.919-1.342,6.091-5.607,4.749-9.525
		c-1.342-3.919-5.565-6.005-9.484-4.666c-92.66,31.726-194.699,31.725-287.359,0c-3.918-1.338-8.172,0.748-9.515,4.666
		c-1.342,3.919,0.586,8.184,4.505,9.525c11.425,3.911,23.45,7.349,34.45,10.339v23.967c-9,3.976-16.3,13.479-16.3,24.575
		c0,14.673,11.977,49.594,26.652,49.594c14.673,0,26.443-34.921,26.443-49.594c0-11.551-6.795-21.376-17.795-25.036V65.348
		c28,5.845,56,9.12,84,9.791v60.466c-9,4.121-15.685,13.452-15.685,24.311c0,14.673,11.977,49.594,26.652,49.594
		c14.673,0,26.444-34.921,26.444-49.594c0-11.78-7.41-21.764-18.41-25.244V75.199c29-0.494,57-3.595,84-9.256v19.229
		c-9,4.144-15.583,13.445-15.583,24.265c0,14.673,11.979,49.594,26.652,49.594c14.675,0,26.443-34.921,26.443-49.594
		C285.178,97.62,277.666,87.609,266.666,84.159z"/>
	<path d="M259.166,177.959c-3.59,0-6.5,2.91-6.5,6.5v33c0,3.59,2.91,6.5,6.5,6.5c3.59,0,6.5-2.91,6.5-6.5v-33
		C265.666,180.87,262.756,177.959,259.166,177.959z"/>
	<path d="M308.974,189.388l-23.169-23.171c-2.595-2.593-6.799-2.594-9.394-0.001c-2.594,2.594-2.595,6.8-0.001,9.394l23.169,23.171
		c1.298,1.297,2.997,1.945,4.697,1.945c1.699,0,3.4-0.648,4.696-1.944C311.567,196.188,311.568,191.982,308.974,189.388z"/>
	<path d="M232.346,166.217l-23.17,23.171c-2.594,2.594-2.594,6.799,0,9.393c1.297,1.297,2.996,1.945,4.696,1.945
		c1.7,0,3.399-0.648,4.696-1.945l23.17-23.171c2.594-2.594,2.594-6.799,0-9.393C239.145,163.624,234.94,163.624,232.346,166.217z"/>
</g>
<g>
</g>
<g>
</g>
<g>
</g>
<g>
</g>
<g>
</g>
<g>
</g>
<g>
</g>
<g>
</g>
<g>
</g>
<g>
</g>
<g>
</g>
<g>
</g>
<g>
</g>
<g>
</g>
<g>
</g>
</svg>
