<?xml version="1.0" encoding="iso-8859-1"?>
<!-- Generator: Adobe Illustrator 19.0.0, SVG Export Plug-In . SVG Version: 6.00 Build 0)  -->
<svg version="1.1" id="Capa_1" xmlns="http://www.w3.org/2000/svg" xmlns:xlink="http://www.w3.org/1999/xlink" x="0px" y="0px"
	 viewBox="0 0 479.956 479.956" style="enable-background:new 0 0 479.956 479.956;" xml:space="preserve">
<g>
	<g>
		<path d="M304.124,71.977c-4.418,0-8,3.582-8,8v16c0,4.418,3.582,8,8,8s8-3.582,8-8v-16
			C312.124,75.559,308.542,71.977,304.124,71.977z"/>
	</g>
</g>
<g>
	<g>
		<path d="M405.948,114.145c-3.126-3.126-8.194-3.126-11.32,0l-11.312,11.328c-3.221,3.025-3.38,8.087-0.355,11.308
			s8.087,3.38,11.308,0.355c0.123-0.116,0.243-0.236,0.359-0.359l11.32-11.312C409.074,122.339,409.074,117.271,405.948,114.145z"/>
	</g>
</g>
<g>
	<g>
		<path d="M440.124,207.977h-16c-4.418,0-8,3.582-8,8s3.582,8,8,8h16c4.418,0,8-3.582,8-8S444.542,207.977,440.124,207.977z"/>
	</g>
</g>
<g>
	<g>
		<path d="M224.924,125.473l-11.312-11.32c-3.126-3.124-8.192-3.122-11.316,0.004s-3.122,8.192,0.004,11.316l11.312,11.304
			c1.499,1.503,3.533,2.349,5.656,2.352c4.418-0.001,7.999-3.583,7.998-8.002C227.266,129.007,226.423,126.973,224.924,125.473z"/>
	</g>
</g>
<g>
	<g>
		<path d="M407.956,263.977c-4.412,0.001-8.814,0.406-13.152,1.208c-1.056-3.08-2.271-6.102-3.64-9.056
			c22.454-47.986,1.756-105.089-46.229-127.543c-47.986-22.454-105.089-1.756-127.543,46.229c-0.271,0.579-0.536,1.161-0.796,1.745
			c-10.18-1.326-20.526-0.392-30.304,2.736c-24.696-36.636-74.416-46.316-111.052-21.62c-22.049,14.863-35.272,39.709-35.284,66.3
			c0,0.8,0,1.552,0,2.352c-29.629,8.869-46.458,40.078-37.589,69.707c7.089,23.683,28.868,39.915,53.589,39.941h88.552
			c-4.622,34.838,19.872,66.826,54.71,71.448c2.896,0.384,5.816,0.569,8.738,0.552h200c39.765,0,72-32.236,72-72
			C479.956,296.213,447.72,263.977,407.956,263.977z M304.124,135.977c44.019-0.164,79.836,35.388,80,79.407
			c0.029,7.818-1.092,15.597-3.328,23.089c-18.088-24.257-46.582-38.531-76.84-38.496c-12.586,0.027-25.041,2.567-36.632,7.472
			c-8.496-12.431-20.684-21.878-34.84-27.008C246.048,153.278,273.762,136.076,304.124,135.977z M55.956,319.977
			c-22.091-0.176-39.856-18.227-39.68-40.317c0.155-19.454,14.285-35.976,33.48-39.147c4.254-0.667,7.217-4.581,6.704-8.856
			c-0.318-2.548-0.486-5.112-0.504-7.68c-0.022-35.346,28.614-64.018,63.96-64.04c23.297-0.015,44.762,12.631,56.04,33.016
			c1.987,3.582,6.359,5.084,10.128,3.48c23.917-10.156,51.679-2.539,67.064,18.4c-23.177,14.519-39.097,38.2-43.792,65.144h-1.4
			c-26.058,0.037-49.498,15.851-59.288,40H55.956z M424.344,389.537c-5.312,1.621-10.835,2.444-16.388,2.44h-200
			c-26.509,0.197-48.159-21.132-48.356-47.641c-0.197-26.509,21.132-48.159,47.641-48.356c2.65-0.02,5.298,0.18,7.915,0.597
			c4.369,0.66,8.445-2.346,9.106-6.715c0.027-0.177,0.048-0.355,0.062-0.533c3.619-43.986,42.21-76.709,86.195-73.09
			c34.196,2.813,62.78,27.143,71.021,60.45c1.062,4.289,5.399,6.905,9.688,5.843c0.14-0.035,0.278-0.073,0.416-0.115
			c29.58-9.03,60.88,7.63,69.91,37.21S453.924,380.507,424.344,389.537z"/>
	</g>
</g>
<g>
</g>
<g>
</g>
<g>
</g>
<g>
</g>
<g>
</g>
<g>
</g>
<g>
</g>
<g>
</g>
<g>
</g>
<g>
</g>
<g>
</g>
<g>
</g>
<g>
</g>
<g>
</g>
<g>
</g>
</svg>
