<?xml version="1.0" encoding="iso-8859-1"?>
<!-- Generator: Adobe Illustrator 19.0.0, SVG Export Plug-In . SVG Version: 6.00 Build 0)  -->
<svg version="1.1" id="Capa_1" xmlns="http://www.w3.org/2000/svg" xmlns:xlink="http://www.w3.org/1999/xlink" x="0px" y="0px"
	 viewBox="0 0 480.306 480.306" style="enable-background:new 0 0 480.306 480.306;" xml:space="preserve">
<g>
	<g>
		<g>
			<path d="M300.46,0C234.186-0.169,180.323,53.42,180.154,119.694c-0.087,34.254,14.468,66.913,39.999,89.749v38.864
				c0,4.418,3.582,8,8,8h48v112h-168v-56c0-4.418-3.582-8-8-8h-32c-4.418,0-8,3.582-8,8v160c0,4.418,3.582,8,8,8h32
				c4.418,0,8-3.582,8-8v-56h208c4.418,0,8-3.582,8-8v-152h48c4.418,0,8-3.582,8-8v-38.864c25.449-22.638,40.006-55.076,40-89.136
				C420.322,54.032,366.734,0.17,300.46,0z M92.153,464.306h-16v-144h16V464.306z M308.153,400.306h-200v-16h176
				c4.418,0,8-3.582,8-8v-120h16V400.306z M364.153,240.306h-128v-32h128V240.306z M374.713,192.722
				c-0.826-0.274-1.69-0.414-2.56-0.416h-144c-0.87,0.002-1.734,0.142-2.56,0.416c-18.912-19.356-29.482-45.355-29.44-72.416
				c-0.048-57.438,46.475-104.039,103.912-104.088c57.438-0.048,104.039,46.475,104.088,103.912
				C404.176,147.24,393.612,173.287,374.713,192.722z"/>
			<path d="M300.153,32.306c-44.163,0.049-79.951,35.837-80,80c0,4.418,3.582,8,8,8s8-3.582,8-8c0.04-35.33,28.67-63.96,64-64
				c4.418,0,8-3.582,8-8S304.571,32.306,300.153,32.306z"/>
		</g>
	</g>
</g>
<g>
</g>
<g>
</g>
<g>
</g>
<g>
</g>
<g>
</g>
<g>
</g>
<g>
</g>
<g>
</g>
<g>
</g>
<g>
</g>
<g>
</g>
<g>
</g>
<g>
</g>
<g>
</g>
<g>
</g>
</svg>
