<?xml version="1.0" encoding="iso-8859-1"?>
<!-- Generator: Adobe Illustrator 19.0.0, SVG Export Plug-In . SVG Version: 6.00 Build 0)  -->
<svg version="1.1" id="Capa_1" xmlns="http://www.w3.org/2000/svg" xmlns:xlink="http://www.w3.org/1999/xlink" x="0px" y="0px"
	 viewBox="0 0 480 480" style="enable-background:new 0 0 480 480;" xml:space="preserve">
<g>
	<g>
		<g>
			<path d="M287.928,156.752c-6.144-17.951-21.755-31.001-40.512-33.864c0.374-0.918,0.572-1.897,0.584-2.888V63.36
				c27.517-3.992,47.947-27.555,48-55.36c0-4.418-3.582-8-8-8h-96c-4.418,0-8,3.582-8,8c0.053,27.805,20.483,51.367,48,55.36V120
				c0.012,0.991,0.21,1.97,0.584,2.888c-18.752,2.862-34.361,15.904-40.512,33.848C80.496,178.4,0,273.192,0,384
				c0,4.418,3.582,8,8,8h144c0,48.601,39.399,88,88,88s88-39.399,88-88h144c4.418,0,8-3.582,8-8
				C480,273.296,399.656,178.584,287.928,156.752z M232.04,47.24C216.299,44.044,203.996,31.741,200.8,16h78.4
				C274.804,37.65,253.69,51.636,232.04,47.24z M240,138.24c11.608,0.041,22.44,5.834,28.92,15.464
				c-2.904-0.344-5.872-0.544-8.8-0.8c-1.408-0.112-2.784-0.288-4.192-0.376C250.64,152.208,245.336,152,240,152
				s-10.64,0.208-15.888,0.544c-1.48,0.096-2.912,0.272-4.384,0.392c-2.896,0.24-5.816,0.432-8.648,0.8
				C217.553,144.093,228.386,138.289,240,138.24z M240,464c-39.746-0.044-71.956-32.254-72-72h144
				C311.956,431.746,279.746,463.956,240,464z M16.152,376C20,274.864,95.944,189.6,199.888,171.512
				c3.048-0.512,6.096-1.04,9.288-1.424c20.501-2.784,41.283-2.784,61.784,0c3.056,0.368,6.104,0.896,9.432,1.456
				C384.064,189.6,460,274.864,463.848,376H16.152z"/>
			<path d="M240,448c22.481,0.097,43.34-11.695,54.848-31.008c2.366-3.732,1.259-8.674-2.473-11.04
				c-3.732-2.366-8.674-1.259-11.04,2.473c-0.063,0.1-0.124,0.201-0.183,0.303C272.517,423.219,256.868,432.068,240,432
				c-4.418,0-8,3.582-8,8S235.582,448,240,448z"/>
		</g>
	</g>
</g>
<g>
</g>
<g>
</g>
<g>
</g>
<g>
</g>
<g>
</g>
<g>
</g>
<g>
</g>
<g>
</g>
<g>
</g>
<g>
</g>
<g>
</g>
<g>
</g>
<g>
</g>
<g>
</g>
<g>
</g>
</svg>
