<?xml version="1.0" encoding="iso-8859-1"?>
<!-- Generator: Adobe Illustrator 19.0.0, SVG Export Plug-In . SVG Version: 6.00 Build 0)  -->
<svg version="1.1" id="Layer_1" xmlns="http://www.w3.org/2000/svg" xmlns:xlink="http://www.w3.org/1999/xlink" x="0px" y="0px"
	 viewBox="0 0 512 512" style="enable-background:new 0 0 512 512;" xml:space="preserve">
<g>
	<g>
		<path d="M435.064,194.748L400.922,7.006C400.188,2.953,396.655,0,392.534,0H119.467c-4.13,0-7.663,2.953-8.397,7.006
			L76.937,194.739c-0.461,2.492,0.213,5.052,1.843,6.989c1.621,1.946,4.019,3.072,6.554,3.072h136.124
			C219,233.301,204.579,256,187.734,256c-4.719,0-8.533,3.823-8.533,8.533c0,7.108,0.384,156.211,29.961,189.653l-36.514,43.819
			c-2.116,2.543-2.577,6.084-1.169,9.079c1.399,2.995,4.412,4.915,7.723,4.915h153.6c3.311,0,6.323-1.92,7.723-4.915
			c1.408-3.004,0.947-6.545-1.169-9.079l-36.514-43.819c29.577-33.442,29.961-182.545,29.961-189.653
			c0-4.71-3.814-8.533-8.533-8.533c-16.845,0-31.275-22.699-33.724-51.2h136.124c2.534,0,4.932-1.126,6.554-3.063
			C434.842,199.791,435.525,197.231,435.064,194.748z M314.582,494.933H197.419l28.45-34.133h60.271L314.582,494.933z
			 M315.691,273.067c-0.845,105.54-17.033,166.281-25.557,170.667h-67.729c-9.207-5.043-25.259-65.655-26.095-170.667H315.691z
			 M291.755,256h-71.509c10.103-12.314,16.887-30.387,18.355-51.2H273.4C274.868,225.613,281.652,243.686,291.755,256z
			 M95.557,187.733l31.036-170.667h258.816l31.036,170.667H95.557z"/>
	</g>
</g>
<g>
</g>
<g>
</g>
<g>
</g>
<g>
</g>
<g>
</g>
<g>
</g>
<g>
</g>
<g>
</g>
<g>
</g>
<g>
</g>
<g>
</g>
<g>
</g>
<g>
</g>
<g>
</g>
<g>
</g>
</svg>
