<?xml version="1.0" encoding="iso-8859-1"?>
<!-- Generator: Adobe Illustrator 19.0.0, SVG Export Plug-In . SVG Version: 6.00 Build 0)  -->
<svg version="1.1" id="Capa_1" xmlns="http://www.w3.org/2000/svg" xmlns:xlink="http://www.w3.org/1999/xlink" x="0px" y="0px"
	 viewBox="0 0 512.001 512.001" style="enable-background:new 0 0 512.001 512.001;" xml:space="preserve">
<g>
	<g>
		<g>
			<path d="M508.334,237.279L263.001,23.946c-4.021-3.479-9.979-3.479-14,0L3.667,237.279c-3.354,2.927-4.552,7.625-2.99,11.792
				s5.542,6.927,9.99,6.927h53.333v224c0,5.896,4.771,10.667,10.667,10.667h362.667c5.896,0,10.667-4.771,10.667-10.667v-224h53.333
				c4.448,0,8.427-2.76,9.99-6.927S511.688,240.206,508.334,237.279z M437.334,234.665c-5.896,0-10.667,4.771-10.667,10.667v224
				H85.334v-224c0-5.896-4.771-10.667-10.667-10.667H39.188L256.001,46.133l216.813,188.531H437.334z"/>
			<path d="M256.001,362.665c-11.76,0-21.333,9.573-21.333,21.333c0,11.76,9.573,21.333,21.333,21.333s21.333-9.573,21.333-21.333
				C277.334,372.238,267.761,362.665,256.001,362.665z"/>
			<path d="M256.001,319.998c-20.323,0-38.979,9.333-51.198,25.594c-3.531,4.708-2.583,11.396,2.125,14.938
				c1.917,1.438,4.167,2.135,6.396,2.135c3.24,0,6.448-1.469,8.542-4.26c16.271-21.698,51.917-21.719,68.26-0.021
				c3.552,4.719,10.208,5.656,14.938,2.104c4.708-3.542,5.646-10.229,2.104-14.938C294.938,329.31,276.292,319.998,256.001,319.998z
				"/>
			<path d="M256.001,277.331c-31.229,0-60.792,13.625-81.104,37.396c-3.833,4.479-3.302,11.208,1.177,15.031
				c4.469,3.833,11.208,3.302,15.031-1.177c16.26-19.01,39.906-29.917,64.896-29.917s48.646,10.906,64.896,29.927
				c2.115,2.469,5.104,3.74,8.115,3.74c2.458,0,4.917-0.844,6.927-2.552c4.479-3.833,5.01-10.563,1.188-15.042
				C316.813,290.967,287.24,277.331,256.001,277.331z"/>
			<path d="M144.824,284.3c-3.938,4.385-3.573,11.125,0.813,15.063c2.042,1.833,4.583,2.729,7.125,2.729
				c2.917,0,5.833-1.198,7.938-3.542c24.26-27.042,59-42.552,95.302-42.552c36.281,0,71,15.5,95.26,42.51
				c3.927,4.375,10.688,4.74,15.063,0.813c4.385-3.938,4.75-10.677,0.813-15.063c-28.302-31.521-68.813-49.594-111.135-49.594
				C213.646,234.665,173.126,252.758,144.824,284.3z"/>
		</g>
	</g>
</g>
<g>
</g>
<g>
</g>
<g>
</g>
<g>
</g>
<g>
</g>
<g>
</g>
<g>
</g>
<g>
</g>
<g>
</g>
<g>
</g>
<g>
</g>
<g>
</g>
<g>
</g>
<g>
</g>
<g>
</g>
</svg>
