<svg xmlns="http://www.w3.org/2000/svg" height="512pt" version="1.1" viewBox="-96 0 512 512.00222" width="512pt">
<g id="surface1">
<path d="M 312.109375 256.5 L 289.335938 256.5 C 271.144531 250.253906 254.949219 240.261719 239.28125 230.582031 C 217.261719 216.972656 194.546875 202.949219 167.328125 200.710938 L 167.328125 167.828125 C 167.328125 155.289062 173.0625 144.449219 181.640625 135.246094 C 182.207031 136.164062 182.796875 137.078125 183.425781 137.972656 C 194.230469 153.402344 211.507812 161.664062 229.050781 161.664062 C 240.066406 161.664062 251.1875 158.40625 260.875 151.621094 C 284.59375 135.011719 294.453125 72.828125 295.496094 65.792969 C 296.085938 61.84375 293.480469 58.125 289.566406 57.328125 C 282.597656 55.90625 220.792969 43.914062 197.074219 60.523438 C 177.433594 74.28125 169.410156 98.527344 175.253906 120.453125 C 172.425781 123.101562 169.765625 125.894531 167.328125 128.835938 L 167.328125 127.75 C 167.328125 110.925781 162.203125 95.160156 152.296875 81.003906 C 166.425781 55.605469 158.554688 23.160156 133.773438 7.226562 C 109.410156 -8.4375 48.128906 5.988281 41.222656 7.6875 C 37.347656 8.636719 34.890625 12.457031 35.632812 16.382812 C 36.957031 23.371094 49.265625 85.113281 73.621094 100.773438 C 82.90625 106.746094 93.3125 109.59375 103.609375 109.59375 C 117.945312 109.59375 132.042969 104.042969 142.585938 93.71875 C 148.484375 103.375 152.296875 114.667969 152.296875 127.75 L 152.296875 200.710938 C 125.078125 202.949219 102.363281 216.972656 80.34375 230.582031 C 64.675781 240.265625 48.480469 250.257812 30.289062 256.503906 L 7.515625 256.503906 C 3.363281 256.503906 0 259.867188 0 264.015625 L 0 320.128906 C 0 324.277344 3.363281 327.640625 7.515625 327.640625 L 25.242188 327.640625 L 56.222656 505.773438 C 56.847656 509.375 59.972656 512.003906 63.625 512.003906 L 256 512.003906 C 259.65625 512.003906 262.78125 509.375 263.40625 505.773438 L 294.382812 327.640625 L 312.109375 327.640625 C 316.261719 327.640625 319.625 324.277344 319.625 320.128906 L 319.625 264.015625 C 319.625 259.867188 316.261719 256.5 312.109375 256.5 Z M 205.695312 72.835938 C 211.894531 68.492188 223.898438 66.902344 237.414062 66.902344 C 251.386719 66.902344 266.980469 68.601562 279.445312 70.726562 C 274.988281 95.203125 264.859375 130.480469 252.253906 139.308594 C 233.925781 152.148438 208.570312 147.679688 195.734375 129.351562 C 194.746094 127.941406 193.875 126.484375 193.089844 125 C 219.585938 104.828125 257.109375 95.140625 257.824219 94.960938 C 261.851562 93.953125 264.296875 89.875 263.292969 85.847656 C 262.285156 81.820312 258.199219 79.378906 254.179688 80.378906 C 251.730469 80.992188 216.855469 89.960938 188.578125 109.734375 C 187.335938 95.734375 193.378906 81.460938 205.695312 72.835938 Z M 81.75 88.132812 C 68.800781 79.804688 57.289062 44.953125 51.871094 20.671875 C 76.199219 15.523438 112.675781 11.527344 125.644531 19.867188 C 142.003906 30.386719 148.265625 50.769531 141.675781 68.285156 C 136.539062 63.046875 130.660156 58.089844 124.042969 53.457031 C 103.253906 38.90625 82.683594 32.636719 81.816406 32.378906 C 77.84375 31.1875 73.660156 33.441406 72.464844 37.410156 C 71.269531 41.382812 73.519531 45.574219 77.492188 46.773438 C 77.992188 46.921875 111.453125 57.339844 133.449219 81.582031 C 120.339844 95.738281 98.527344 98.921875 81.75 88.132812 Z M 88.242188 243.367188 C 111.5 228.996094 133.46875 215.421875 159.8125 215.421875 C 186.160156 215.421875 208.125 228.996094 231.382812 243.367188 C 238.542969 247.792969 245.8125 252.28125 253.375 256.5 L 66.253906 256.5 C 73.816406 252.28125 81.082031 247.792969 88.242188 243.367188 Z M 304.597656 312.609375 L 256 312.609375 C 251.851562 312.609375 248.488281 315.972656 248.488281 320.125 C 248.488281 324.277344 251.851562 327.640625 256 327.640625 L 279.128906 327.640625 L 249.679688 496.972656 L 69.945312 496.972656 L 40.496094 327.640625 L 122.902344 327.640625 C 109.152344 346.050781 96.1875 367.769531 96.1875 384.25 C 96.1875 419.332031 124.730469 447.875 159.8125 447.875 C 194.894531 447.875 223.4375 419.332031 223.4375 384.25 C 223.4375 367.769531 210.476562 346.050781 196.722656 327.640625 L 220.433594 327.640625 C 224.582031 327.640625 227.945312 324.277344 227.945312 320.125 C 227.945312 315.972656 224.582031 312.609375 220.433594 312.609375 L 185.863281 312.609375 C 185.527344 312.609375 185.195312 312.640625 184.871094 312.683594 C 175.386719 301.339844 167.3125 292.988281 165.179688 290.816406 C 162.273438 287.855469 157.351562 287.855469 154.449219 290.816406 C 152.316406 292.988281 144.242188 301.339844 134.757812 312.683594 C 134.433594 312.640625 134.101562 312.609375 133.761719 312.609375 L 15.03125 312.609375 L 15.03125 271.53125 L 304.597656 271.53125 Z M 208.410156 384.25 C 208.410156 411.046875 186.609375 432.84375 159.8125 432.84375 C 133.019531 432.84375 111.21875 411.046875 111.21875 384.25 C 111.21875 363.742188 142.519531 325.675781 159.8125 306.988281 C 177.109375 325.675781 208.410156 363.742188 208.410156 384.25 Z M 208.410156 384.25 " style=" stroke:none;fill-rule:nonzero;fill:rgb(0%,0%,0%);fill-opacity:1;" />
<path d="M 130.453125 413.613281 C 133.347656 416.507812 138.183594 416.507812 141.078125 413.613281 L 189.175781 365.519531 C 192.109375 362.582031 192.109375 357.824219 189.175781 354.890625 C 186.238281 351.957031 181.480469 351.957031 178.546875 354.890625 L 130.453125 402.984375 C 127.515625 405.917969 127.515625 410.675781 130.453125 413.613281 Z M 130.453125 413.613281 " style=" stroke:none;fill-rule:nonzero;fill:rgb(0%,0%,0%);fill-opacity:1;" />
<path d="M 183.359375 400.28125 C 183.359375 404.433594 179.996094 407.796875 175.84375 407.796875 C 171.695312 407.796875 168.332031 404.433594 168.332031 400.28125 C 168.332031 396.132812 171.695312 392.765625 175.84375 392.765625 C 179.996094 392.765625 183.359375 396.132812 183.359375 400.28125 Z M 183.359375 400.28125 " style=" stroke:none;fill-rule:nonzero;fill:rgb(0%,0%,0%);fill-opacity:1;" />
<path d="M 151.796875 368.71875 C 151.796875 372.871094 148.433594 376.234375 144.28125 376.234375 C 140.132812 376.234375 136.769531 372.871094 136.769531 368.71875 C 136.769531 364.570312 140.132812 361.207031 144.28125 361.207031 C 148.433594 361.207031 151.796875 364.570312 151.796875 368.71875 Z M 151.796875 368.71875 " style=" stroke:none;fill-rule:nonzero;fill:rgb(0%,0%,0%);fill-opacity:1;" />
</g>
</svg>