<?xml version="1.0"?>
<svg xmlns="http://www.w3.org/2000/svg" width="512" height="512" viewBox="0 0 128 128"><g><path d="M104.37,78.18V56.212L123,25.091a1.75,1.75,0,0,0-1.5-2.649H61.308a1.751,1.751,0,0,0-1.5.852l-34.423,57.5a1.749,1.749,0,0,0,1.5,2.648H87.077a1.749,1.749,0,0,0,1.5-.851L90.2,79.875c.055.013.11.021.166.029V101.62H64a1.75,1.75,0,0,0-1.75,1.75v10.5H54.54V112.5a1.75,1.75,0,0,0-1.75-1.75H48.538V97.5a1.75,1.75,0,0,0-1.75-1.75H42.57V91.5a1.75,1.75,0,0,0-1.75-1.75h-6a1.75,1.75,0,0,0-1.75,1.75v4.25H20.7V91.5a1.749,1.749,0,0,0-1.75-1.75h-6A1.75,1.75,0,0,0,11.2,91.5v4.25H6.98A1.75,1.75,0,0,0,5.23,97.5v24a1.75,1.75,0,0,0,1.75,1.75H46.788a1.75,1.75,0,0,0,1.75-1.75v-1.25H52.79a1.75,1.75,0,0,0,1.75-1.75v-1.13H64a1.75,1.75,0,0,0,1.75-1.75v-10.5H90.37v2.63H84.146a1.749,1.749,0,0,0-1.75,1.75v4.25H76.712a1.75,1.75,0,0,0-1.75,1.75v6a1.75,1.75,0,0,0,1.75,1.75H116.52a1.75,1.75,0,0,0,1.75-1.75v-6a1.75,1.75,0,0,0-1.75-1.75h-5.685V109.5a1.749,1.749,0,0,0-1.75-1.75H102.87V79.9A1.744,1.744,0,0,0,104.37,78.18ZM36.57,93.25h2.5v2.5h-2.5Zm-21.87,0h2.5v2.5H14.7Zm30.338,26.5H8.73V99.25H45.038Zm6-3h-2.5v-2.5h2.5Zm49.83-40.32h-8.5v-.173l8.5-14.2ZM49.876,79.942l4.789-8H70.49l-4.789,8Zm6.884-11.5,4.79-8H77.375l-4.79,8Zm-15.114-8H57.471l-4.789,8H36.856Zm6.884-11.5H64.356l-4.79,8H43.741Zm6.885-11.5H71.24l-4.789,8H50.626Zm42.614-11.5-4.79,8H77.414l4.79-8Zm-6.885,11.5-4.789,8H70.53l4.789-8Zm15.6,8H90.433l4.79-8h16.305Zm-6.885,11.5h-16.3l4.789-8h16.305Zm-20.384,0H63.645l4.789-8H84.259Zm1.983,3.5H97.759l-4.79,8h-16.3Zm32.17-26.5H97.318l4.789-8h16.306Zm-51.323-8H78.125l-4.789,8H57.51Zm-27.539,46H50.586l-4.789,8H29.972Zm51.323,8H69.779l4.79-8h16.3ZM114.77,119.75H78.462v-2.5H114.77Zm-7.435-6H85.9v-2.5h21.439Zm-13.465-6V79.93h5.5v27.82Z"/><path d="M6.5,24.75H9.374a13.651,13.651,0,0,0,2.757,6.639L10.09,33.43a1.754,1.754,0,0,0,2.48,2.48l2.041-2.041a13.651,13.651,0,0,0,6.639,2.757V39.5a1.75,1.75,0,0,0,3.5,0V36.626a13.651,13.651,0,0,0,6.639-2.757L33.43,35.91a1.754,1.754,0,1,0,2.48-2.48l-2.041-2.041a13.651,13.651,0,0,0,2.757-6.639H39.5a1.75,1.75,0,0,0,0-3.5H36.626a13.651,13.651,0,0,0-2.757-6.639L35.91,12.57a1.754,1.754,0,1,0-2.48-2.48l-2.041,2.04A13.66,13.66,0,0,0,24.75,9.374V6.5a1.75,1.75,0,0,0-3.5,0V9.374a13.66,13.66,0,0,0-6.639,2.756L12.57,10.09a1.754,1.754,0,0,0-2.48,2.48l2.041,2.041A13.651,13.651,0,0,0,9.374,21.25H6.5a1.75,1.75,0,0,0,0,3.5Zm16.5-12A10.25,10.25,0,1,1,12.75,23,10.261,10.261,0,0,1,23,12.75Z"/><path d="M12.98,106a1.75,1.75,0,0,0-1.75,1.75V114a1.75,1.75,0,0,0,3.5,0v-6.25A1.749,1.749,0,0,0,12.98,106Z"/><path d="M29.008,107.75H27.22l1.318-3.8a1.75,1.75,0,0,0-3.307-1.146l-2.123,6.125a1.749,1.749,0,0,0,1.653,2.323h1.788l-1.318,3.8a1.749,1.749,0,0,0,1.08,2.226,1.716,1.716,0,0,0,.573.1,1.751,1.751,0,0,0,1.654-1.177l2.123-6.125a1.749,1.749,0,0,0-1.653-2.323Z"/></g></svg>
