<svg height="482pt" viewBox="-60 0 482 482.36115" width="482pt" xmlns="http://www.w3.org/2000/svg"><path d="m172.179688 216.242188v36c0 4.417968 3.582031 8 8 8 4.417968 0 8-3.582032 8-8v-36c0-4.417969-3.582032-8-8-8-4.417969 0-8 3.582031-8 8zm0 0"/><path d="m278.054688 299.488281c2.121093.003907 4.160156-.839843 5.65625-2.34375l25.457031-25.457031c3.121093-3.121094 3.121093-8.1875 0-11.3125-3.125-3.125-8.191407-3.125-11.316407 0l-25.453124 25.457031c-2.289063 2.285157-2.972657 5.726563-1.734376 8.71875 1.238282 2.988281 4.15625 4.9375 7.390626 4.9375zm0 0"/><path d="m354.179688 360.359375c-23.386719 0-35.191407 5.460937-46.605469 10.742187-10.101563 4.667969-19.660157 9.082032-38.757813 9.25-4.035156-44.410156-41.796875-80.109374-87.636718-80.109374-45.835938 0-83.597657 35.699218-87.636719 80.109374-19.097657-.167968-28.65625-4.582031-38.757813-9.25-11.414062-5.28125-23.21875-10.742187-46.605468-10.742187-4.417969 0-8 3.582031-8 8 0 4.421875 3.582031 8 8 8 19.863281 0 29.59375 4.5 39.890624 9.261719 11.417969 5.28125 23.222657 10.738281 46.605469 10.738281 23.386719 0 35.191407-5.457031 46.609375-10.738281 10.296875-4.761719 20.027344-9.261719 39.890625-9.261719s29.59375 4.5 39.894531 9.261719c11.417969 5.28125 23.222657 10.738281 46.605469 10.738281 23.386719 0 35.195313-5.457031 46.609375-10.738281 10.300782-4.761719 20.03125-9.261719 39.894532-9.261719 4.417968 0 8-3.578125 8-8 0-4.417969-3.582032-8-8-8zm-173 0c-23.386719 0-35.191407 5.460937-46.605469 10.742187-7.292969 3.371094-14.300781 6.609376-24.824219 8.210938 4.5-36.027344 35.125-63.070312 71.4375-63.070312 36.308594 0 66.933594 27.042968 71.433594 63.070312-10.527344-1.597656-17.539063-4.839844-24.832032-8.214844-11.421874-5.277344-23.226562-10.738281-46.609374-10.738281zm0 0"/><path d="m78.648438 297.140625c3.128906 3.09375 8.167968 3.078125 11.28125-.035156 3.109374-3.109375 3.125-8.148438.035156-11.277344l-25.457032-25.457031c-3.125-3.125-8.1875-3.125-11.3125 0s-3.125 8.191406 0 11.316406zm0 0"/><path d="m354.179688 403.359375c-23.386719 0-35.191407 5.460937-46.605469 10.742187-10.300781 4.761719-20.03125 9.257813-39.898438 9.257813-19.863281 0-29.59375-4.5-39.890625-9.257813-11.417968-5.28125-23.222656-10.742187-46.605468-10.742187-23.378907 0-35.191407 5.460937-46.605469 10.742187-10.300781 4.761719-20.027344 9.257813-39.894531 9.257813-19.863282 0-29.589844-4.5-39.890626-9.257813-11.417968-5.28125-23.222656-10.742187-46.609374-10.742187-4.417969 0-8 3.582031-8 8 0 4.421875 3.582031 8 8 8 19.863281 0 29.59375 4.5 39.890624 9.261719 11.417969 5.28125 23.222657 10.738281 46.605469 10.738281 23.386719 0 35.191407-5.457031 46.609375-10.738281 10.296875-4.761719 20.027344-9.261719 39.890625-9.261719s29.59375 4.5 39.894531 9.261719c11.417969 5.28125 23.222657 10.738281 46.605469 10.738281 23.386719 0 35.195313-5.457031 46.609375-10.738281 10.300782-4.761719 20.03125-9.261719 39.894532-9.261719 4.417968 0 8-3.578125 8-8 0-4.417969-3.582032-8-8-8zm0 0"/><path d="m354.179688 446.359375c-23.386719 0-35.191407 5.460937-46.605469 10.742187-10.300781 4.761719-20.03125 9.257813-39.898438 9.257813-19.863281 0-29.59375-4.5-39.890625-9.257813-11.417968-5.28125-23.222656-10.742187-46.605468-10.742187-23.378907 0-35.191407 5.460937-46.605469 10.742187-10.300781 4.761719-20.027344 9.257813-39.894531 9.257813-19.863282 0-29.589844-4.5-39.890626-9.257813-11.417968-5.28125-23.222656-10.742187-46.609374-10.742187-4.417969 0-8 3.582031-8 8 0 4.421875 3.582031 8 8 8 19.863281 0 29.59375 4.5 39.890624 9.261719 11.417969 5.28125 23.222657 10.738281 46.605469 10.738281 23.386719 0 35.191407-5.457031 46.609375-10.738281 10.296875-4.761719 20.027344-9.261719 39.890625-9.261719s29.59375 4.5 39.894531 9.261719c11.417969 5.28125 23.222657 10.738281 46.605469 10.738281 23.386719 0 35.195313-5.457031 46.609375-10.738281 10.300782-4.761719 20.03125-9.261719 39.894532-9.261719 4.417968 0 8-3.578125 8-8 0-4.417969-3.582032-8-8-8zm0 0"/><path d="m133.691406 68.242188h25.488282v85c0 4.417968 3.582031 8 8 8h28c4.417968 0 8-3.582032 8-8v-85h25.492187c3.167969 0 6.035156-1.867188 7.316406-4.765626 1.28125-2.894531.734375-6.273437-1.398437-8.617187l-47.488282-52.238281c-1.515624-1.671875-3.667968-2.621094-5.921874-2.621094-2.253907 0-4.402344.949219-5.917969 2.621094l-47.492188 52.238281c-2.128906 2.34375-2.675781 5.722656-1.394531 8.617187 1.28125 2.898438 4.148438 4.765626 7.316406 4.765626zm47.488282-48.347657 29.40625 32.347657h-15.40625c-4.417969 0-8 3.582031-8 8v85h-12v-85c0-4.417969-3.582032-8-8-8h-15.40625zm0 0"/></svg>