<svg height="482pt" viewBox="-60 0 482 482" width="482pt" xmlns="http://www.w3.org/2000/svg"><path d="m180 208c-4.417969 0-8 3.582031-8 8v36c0 4.417969 3.582031 8 8 8s8-3.582031 8-8v-36c0-4.417969-3.582031-8-8-8zm0 0"/><path d="m277.875 299.125c2.121094.003906 4.15625-.839844 5.65625-2.34375l25.453125-25.453125c3.09375-3.132813 3.078125-8.167969-.03125-11.28125-3.113281-3.109375-8.152344-3.125-11.28125-.03125l-25.453125 25.453125c-2.289062 2.289062-2.972656 5.730469-1.734375 8.71875s4.152344 4.9375 7.390625 4.9375zm0 0"/><path d="m354 360c-23.386719 0-35.191406 5.460938-46.609375 10.738281-10.097656 4.671875-19.65625 9.085938-38.757813 9.253907-4.15625-45.296876-42.148437-79.960938-87.632812-79.960938s-83.476562 34.664062-87.632812 79.960938c-19.097657-.167969-28.660157-4.582032-38.761719-9.253907-11.417969-5.277343-23.222657-10.738281-46.605469-10.738281-4.417969 0-8 3.582031-8 8s3.582031 8 8 8c19.863281 0 29.59375 4.5 39.890625 9.261719 11.417969 5.277343 23.222656 10.738281 46.609375 10.738281s35.191406-5.460938 46.605469-10.738281c10.292969-4.761719 20.023437-9.261719 39.894531-9.261719s29.59375 4.5 39.894531 9.261719c11.410157 5.277343 23.214844 10.738281 46.605469 10.738281s35.191406-5.460938 46.609375-10.738281c10.296875-4.761719 20.027344-9.261719 39.890625-9.261719 4.417969 0 8-3.582031 8-8s-3.582031-8-8-8zm-173 0c-23.386719 0-35.191406 5.460938-46.605469 10.738281-7.289062 3.371094-14.292969 6.601563-24.800781 8.210938 4.550781-35.972657 35.148438-62.949219 71.410156-62.949219 36.261719 0 66.859375 26.976562 71.410156 62.949219-10.511718-1.601563-17.515624-4.839844-24.804687-8.210938-11.421875-5.277343-23.226563-10.738281-46.609375-10.738281zm0 0"/><path d="m78.46875 296.78125c3.128906 3.09375 8.167969 3.078125 11.28125-.03125 3.109375-3.113281 3.125-8.148438.03125-11.28125l-25.453125-25.453125c-2.015625-2.042969-4.972656-2.847656-7.746094-2.109375-2.773437.734375-4.941406 2.902344-5.675781 5.675781-.738281 2.773438.066406 5.726563 2.109375 7.746094zm0 0"/><path d="m354 403c-23.386719 0-35.191406 5.460938-46.609375 10.738281-10.296875 4.761719-20.027344 9.261719-39.890625 9.261719s-29.59375-4.5-39.894531-9.261719c-11.417969-5.277343-23.222657-10.738281-46.605469-10.738281s-35.191406 5.460938-46.605469 10.738281c-10.304687 4.761719-20.035156 9.261719-39.894531 9.261719s-29.59375-4.5-39.890625-9.261719c-11.421875-5.277343-23.226563-10.738281-46.609375-10.738281-4.417969 0-8 3.582031-8 8s3.582031 8 8 8c19.863281 0 29.59375 4.5 39.890625 9.261719 11.417969 5.277343 23.222656 10.738281 46.609375 10.738281s35.191406-5.460938 46.605469-10.738281c10.292969-4.761719 20.023437-9.261719 39.894531-9.261719s29.59375 4.5 39.894531 9.261719c11.410157 5.277343 23.214844 10.738281 46.605469 10.738281s35.191406-5.460938 46.609375-10.738281c10.296875-4.761719 20.027344-9.261719 39.890625-9.261719 4.417969 0 8-3.582031 8-8s-3.582031-8-8-8zm0 0"/><path d="m354 446c-23.386719 0-35.191406 5.460938-46.609375 10.738281-10.296875 4.761719-20.027344 9.261719-39.890625 9.261719s-29.59375-4.5-39.894531-9.261719c-11.417969-5.277343-23.222657-10.738281-46.605469-10.738281s-35.191406 5.460938-46.605469 10.738281c-10.304687 4.761719-20.035156 9.261719-39.894531 9.261719s-29.59375-4.5-39.890625-9.261719c-11.421875-5.277343-23.226563-10.738281-46.609375-10.738281-4.417969 0-8 3.582031-8 8s3.582031 8 8 8c19.863281 0 29.59375 4.5 39.890625 9.261719 11.417969 5.277343 23.222656 10.738281 46.609375 10.738281s35.191406-5.460938 46.605469-10.738281c10.292969-4.761719 20.023437-9.261719 39.894531-9.261719s29.59375 4.5 39.894531 9.261719c11.410157 5.277343 23.214844 10.738281 46.605469 10.738281s35.191406-5.460938 46.609375-10.738281c10.296875-4.761719 20.027344-9.261719 39.890625-9.261719 4.417969 0 8-3.582031 8-8s-3.582031-8-8-8zm0 0"/><path d="m175.078125 158.621094c1.519531 1.667968 3.667969 2.621094 5.921875 2.621094s4.402344-.953126 5.921875-2.621094l47.488281-52.238282c2.128906-2.34375 2.679688-5.722656 1.398438-8.621093-1.28125-2.894531-4.152344-4.761719-7.316406-4.761719h-25.492188v-85c0-4.417969-3.582031-8-8-8h-28c-4.417969 0-8 3.582031-8 8v85h-25.492188c-3.164062 0-6.035156 1.867188-7.316406 4.761719-1.28125 2.898437-.730468 6.277343 1.398438 8.621093zm-8.078125-49.621094c4.417969 0 8-3.582031 8-8v-85h12v85c0 4.417969 3.582031 8 8 8h15.40625l-29.40625 32.347656-29.40625-32.347656zm0 0"/></svg>