<?xml version="1.0" encoding="UTF-8"?> <svg xmlns="http://www.w3.org/2000/svg" height="512pt" viewBox="-34 0 512 512" width="512pt"><path d="m25.601562 512h8.53125c14.132813-.015625 25.585938-11.46875 25.601563-25.601562h324.265625c.015625 14.132812 11.46875 25.585937 25.601562 25.601562h8.53125c14.132813-.015625 25.585938-11.46875 25.601563-25.601562v-460.796876c-.015625-14.132812-11.46875-25.585937-25.601563-25.601562h-8.53125c-14.132812.015625-25.585937 11.46875-25.601562 25.601562h-121.039062c-3.59375-10.199218-13.214844-17.035156-24.027344-17.066406h-102.398438c-10.816406.03125-20.4375 6.867188-24.027344 17.066406h-52.773437c-.015625-14.132812-11.46875-25.585937-25.601563-25.601562h-8.53125c-14.132812.015625-25.585937 11.46875-25.601562 25.601562v460.796876c.015625 14.132812 11.46875 25.585937 25.601562 25.601562zm85.332032-281.601562h-51.199219v-51.199219h51.199219zm-51.199219 17.066406h51.199219v17.070312h-51.199219zm51.199219 34.136718v25.597657c0 4.714843 3.820312 8.535156 8.53125 8.535156 4.714844 0 8.535156-3.820313 8.535156-8.535156v-8.53125h17.066406v8.53125c0 4.714843 3.820313 8.535156 8.535156 8.535156 4.710938 0 8.53125-3.820313 8.53125-8.535156v-8.53125h17.066407v8.53125c0 4.714843 3.820312 8.535156 8.535156 8.535156 4.710937 0 8.53125-3.820313 8.53125-8.535156v-8.53125h17.066406v8.53125c0 4.714843 3.820313 8.535156 8.535157 8.535156 4.710937 0 8.53125-3.820313 8.53125-8.535156v-8.53125h17.066406v8.53125c0 4.714843 3.824218 8.535156 8.535156 8.535156s8.535156-3.820313 8.535156-8.535156v-25.597657h119.464844v51.199219h-324.265625v-51.199219zm273.066406-17.066406h-119.464844v-17.070312h119.464844zm-324.265625 85.332032h324.265625v17.066406h-324.265625zm324.265625-119.46875h-119.464844v-51.199219h119.464844zm0-68.265626h-119.464844v-17.066406h119.464844zm-136.535156 119.46875h-119.464844v-47.667968l25.601562-25.601563 22.066407 22.066407c6.664062 6.660156 17.464843 6.660156 24.132812 0l22.066407-22.066407 25.597656 25.601563zm-136.53125-119.46875h-51.199219v-17.066406h51.199219zm-51.199219 221.867188h324.265625v51.199219h-324.265625zm324.265625-256h-119.464844v-51.199219h119.464844zm-136.535156 81.800781-13.53125-13.535156c-6.667969-6.65625-17.46875-6.65625-24.132813 0l-22.066406 22.066406-22.066406-22.066406c-6.667969-6.65625-17.46875-6.65625-24.136719 0l-13.53125 13.535156v-27.066406l25.601562-25.601563 22.066407 22.066407c6.664062 6.660156 17.464843 6.660156 24.132812 0l22.066407-22.066407 25.597656 25.601563zm-136.53125-81.800781h-51.199219v-51.199219h51.199219zm-51.199219 341.332031v-17.066406h324.265625v17.066406zm341.332031-443.730469c.003906-4.710937 3.824219-8.53125 8.535156-8.535156h8.53125c4.710938.003906 8.53125 3.824219 8.535157 8.535156v460.796876c-.003907 4.710937-3.824219 8.53125-8.535157 8.535156h-8.53125c-4.710937-.003906-8.53125-3.824219-8.535156-8.535156zm-17.066406 34.132813h-119.464844v-17.066406h119.464844zm-247.464844-34.132813h102.398438c4.710937.003907 8.527344 3.820313 8.53125 8.53125v124.46875l-13.53125-13.535156c-6.667969-6.660156-17.46875-6.660156-24.132813 0l-22.066406 22.066406-22.066406-22.066406c-6.667969-6.660156-17.46875-6.660156-24.136719 0l-13.53125 13.535156v-124.46875c.003906-4.710937 3.820312-8.527343 8.535156-8.53125zm-25.601562 17.066407v17.066406h-51.199219v-17.066406zm-93.867188-17.066407c.003906-4.710937 3.824219-8.53125 8.535156-8.535156h8.53125c4.710938.003906 8.53125 3.824219 8.535157 8.535156v460.796876c-.003907 4.710937-3.824219 8.53125-8.535157 8.535156h-8.53125c-4.710937-.003906-8.53125-3.824219-8.535156-8.535156zm0 0"></path></svg> 