<?xml version="1.0" encoding="iso-8859-1"?>
<!-- Generator: Adobe Illustrator 19.0.0, SVG Export Plug-In . SVG Version: 6.00 Build 0)  -->
<svg version="1.1" id="Capa_1"
	xmlns="http://www.w3.org/2000/svg"
	xmlns:xlink="http://www.w3.org/1999/xlink" x="0px" y="0px" viewBox="0 0 512.057 512.057" style="enable-background:new 0 0 512.057 512.057;" xml:space="preserve">
	<g transform="translate(-1 -1)">
		<g>
			<g>
				<path d="M444.769,291.191h-25.6c-23.553-0.028-42.639-19.114-42.667-42.667v-17.067c18.851,0,34.133-15.282,34.133-34.133
				s-15.282-34.133-34.133-34.133v-51.2c-0.059-51.817-42.05-93.808-93.867-93.867h-8.752
				c-9.082-12.202-23.993-18.619-39.099-16.827c-15.105,1.792-28.101,11.519-34.077,25.507c-5.976,13.988-4.021,30.103,5.127,42.256
				v34.397h-8.533c-14.138,0-25.6,11.461-25.6,25.6s11.461,25.6,25.6,25.6v8.533h-59.733c-47.106,0.054-85.279,38.227-85.333,85.333
				c-0.001,2.263,0.898,4.434,2.499,6.035c1.6,1.6,3.771,2.499,6.035,2.499h51.2c2.263,0.001,4.434-0.898,6.035-2.499
				c1.6-1.6,2.499-3.771,2.499-6.035c0.011-9.421,7.645-17.056,17.067-17.067h59.733v10.106
				c-10.22,3.564-17.067,13.203-17.067,24.027c0,10.824,6.847,20.463,17.067,24.027v138.106c-14.132,0.015-25.585,11.468-25.6,25.6
				v10.106c-10.199,3.592-17.033,13.214-17.067,24.028v17.067c-0.001,2.263,0.898,4.434,2.499,6.035
				c1.6,1.6,3.771,2.499,6.035,2.499h153.6c2.263,0.001,4.434-0.898,6.035-2.499c1.6-1.6,2.499-3.771,2.499-6.035v-17.067
				c-0.033-10.813-6.868-20.435-17.067-24.028v-10.106c-0.015-14.132-11.468-25.585-25.6-25.6V289.618
				c10.22-3.565,17.067-13.204,17.067-24.028s-6.847-20.463-17.067-24.028v-10.106h42.667v17.067
				c0.059,51.817,42.05,93.808,93.867,93.867h25.6c14.138,0,25.6-11.462,25.6-25.6S458.908,291.191,444.769,291.191z
				 M281.773,35.191h0.862c42.396,0.048,76.752,34.404,76.8,76.8v51.2h-17.067v-51.2c-0.038-32.974-26.759-59.695-59.733-59.733
				h-0.862C282.923,46.626,282.923,40.821,281.773,35.191z M274.103,69.324h8.533c23.553,0.028,42.639,19.114,42.667,42.667v51.2
				h-42.667v-8.533c14.132-0.015,25.585-11.468,25.6-25.6c-0.015-14.132-11.468-25.585-25.6-25.6h-8.533V69.324z M239.969,18.124
				c14.138,0,25.6,11.462,25.6,25.6s-11.461,25.6-25.6,25.6s-25.6-11.461-25.6-25.6C214.385,29.592,225.837,18.139,239.969,18.124z
				 M257.036,82.774v20.683h-34.133V82.774C233.769,87.596,246.169,87.596,257.036,82.774z M137.569,214.391
				c-15.558,0.019-29.142,10.54-33.05,25.6H69.836c4.342-34.112,33.346-59.69,67.733-59.733h59.733v34.133H137.569z
				 M308.236,487.457v8.533H171.703v-8.533c0.005-4.711,3.822-8.529,8.533-8.533h119.467
				C304.413,478.929,308.231,482.746,308.236,487.457z M291.169,453.324v8.533h-102.4v-8.533c0.005-4.711,3.822-8.529,8.533-8.533
				h85.333C287.347,444.795,291.165,448.613,291.169,453.324z M214.369,427.724V291.191h51.2v136.533H214.369z M274.103,274.124
				h-68.267c-4.713,0-8.533-3.82-8.533-8.533s3.82-8.533,8.533-8.533h68.267c4.713,0,8.533,3.82,8.533,8.533
				S278.815,274.124,274.103,274.124z M214.369,239.991v-85.333h51.2v85.333H214.369z M197.303,137.591
				c-4.711-0.005-8.529-3.822-8.533-8.533c0.005-4.711,3.822-8.529,8.533-8.533h85.333c4.713,0,8.533,3.82,8.533,8.533
				c0,4.713-3.821,8.533-8.533,8.533H197.303z M282.636,214.391v-34.133h93.867c9.421,0.011,17.056,7.645,17.067,17.067
				c-0.011,9.421-7.645,17.056-17.067,17.067H282.636z M444.769,325.324h-25.6c-42.396-0.048-76.752-34.404-76.8-76.8v-17.067
				h17.067v17.067c0.038,32.974,26.759,59.695,59.733,59.733h25.6c4.713,0,8.533,3.82,8.533,8.533S449.482,325.324,444.769,325.324z
				"/>
				<path d="M93.503,277.978c-1.669-2.268-4.318-3.606-7.133-3.606s-5.464,1.339-7.133,3.606
				c-3.642,5.55-35.533,54.913-35.533,79.088c-0.614,24.207,18.462,44.353,42.667,45.058c24.204-0.706,43.281-20.851,42.667-45.058
				C129.036,332.891,97.144,283.528,93.503,277.978z M86.369,385.057c-14.778-0.706-26.213-13.21-25.6-27.992
				c0-11.888,13.7-38.529,25.6-58.329c11.9,19.8,25.6,46.442,25.6,58.329C112.582,371.847,101.147,384.351,86.369,385.057z"/>
			</g>
		</g>
	</g>
	<g>
	</g>
	<g>
	</g>
	<g>
	</g>
	<g>
	</g>
	<g>
	</g>
	<g>
	</g>
	<g>
	</g>
	<g>
	</g>
	<g>
	</g>
	<g>
	</g>
	<g>
	</g>
	<g>
	</g>
	<g>
	</g>
	<g>
	</g>
	<g>
	</g>
</svg>
