<svg id="Capa_1" enable-background="new 0 0 512 512" height="512" viewBox="0 0 512 512" width="512" xmlns="http://www.w3.org/2000/svg"><g><path d="m157.316 297.223c6.637 4.962 16.035 3.604 20.996-3.031 4.96-6.635 3.604-16.035-3.031-20.996-33.989-25.413-54.281-65.86-54.281-108.196 0-74.439 60.561-135 135-135s135 60.561 135 135c0 42.336-20.292 82.783-54.281 108.197-6.635 4.96-7.991 14.361-3.031 20.996 4.978 6.657 14.383 7.976 20.996 3.031 41.525-31.049 66.316-80.478 66.316-132.224 0-90.981-74.019-165-165-165s-165 74.019-165 165c0 51.746 24.791 101.175 66.316 132.223z"/><path d="m317.086 232.708c6.463 5.148 15.904 4.108 21.078-2.389 14.726-18.49 22.836-41.688 22.836-65.319 0-57.897-47.103-105-105-105s-105 47.103-105 105c0 23.631 8.11 46.829 22.836 65.319 5.16 6.48 14.598 7.55 21.078 2.389s7.55-14.598 2.389-21.078c-10.665-13.392-16.303-29.516-16.303-46.63 0-41.355 33.645-75 75-75s75 33.645 75 75c0 17.114-5.638 33.238-16.303 46.63-5.161 6.48-4.092 15.917 2.389 21.078z"/><path d="m376 482h-18.818c-18.893-63.395 45.27 151.906-82.302-276.167 15.406-7.152 26.12-22.761 26.12-40.833 0-24.813-20.187-45-45-45s-45 20.187-45 45c0 18.072 10.714 33.681 26.12 40.833-73.244 245.405-17.048 57.204-82.302 276.167h-18.818c-8.284 0-15 6.716-15 15s6.716 15 15 15h60c8.284 0 15-6.716 15-15s-6.716-15-15-15h-9.878l9.536-32h120.323.011.009.339l9.536 32h-9.876c-8.284 0-15 6.716-15 15s6.716 15 15 15h60c8.284 0 15-6.716 15-15s-6.716-15-15-15zm-86.479-122 13.027 43.713-50.999-43.713zm-58.101-30 24.58-82.479 24.58 82.479zm24.58-180c8.271 0 15 6.729 15 15s-6.729 15-15 15-15-6.729-15-15 6.729-15 15-15zm-36.985 221.626 56.436 48.374h-70.853z"/></g></svg>